<svg width="708" height="612" viewBox="0 0 708 612" fill="none" xmlns="http://www.w3.org/2000/svg">
<circle cx="197.542" cy="444.333" r="3.31077" transform="rotate(-180 197.542 444.333)" fill="#8A3FFC"/>
<circle cx="148.985" cy="444.333" r="3.31077" transform="rotate(-180 148.985 444.333)" fill="#8A3FFC"/>
<circle cx="100.427" cy="444.333" r="3.31077" transform="rotate(-180 100.427 444.333)" fill="#8A3FFC"/>
<circle cx="51.8687" cy="444.333" r="3.31077" transform="rotate(-180 51.8687 444.333)" fill="#8A3FFC"/>
<circle cx="3.31087" cy="444.333" r="3.31077" transform="rotate(-180 3.31087 444.333)" fill="#8A3FFC"/>
<circle cx="197.543" cy="395.775" r="3.31077" transform="rotate(-180 197.543 395.775)" fill="#8A3FFC"/>
<circle cx="148.985" cy="395.775" r="3.31077" transform="rotate(-180 148.985 395.775)" fill="#8A3FFC"/>
<circle cx="100.427" cy="395.775" r="3.31077" transform="rotate(-180 100.427 395.775)" fill="#8A3FFC"/>
<circle cx="51.8689" cy="395.775" r="3.31077" transform="rotate(-180 51.8689 395.775)" fill="#8A3FFC"/>
<circle cx="3.31093" cy="395.775" r="3.31077" transform="rotate(-180 3.31093 395.775)" fill="#8A3FFC"/>
<circle cx="197.543" cy="347.217" r="3.31077" transform="rotate(-180 197.543 347.217)" fill="#8A3FFC"/>
<circle cx="148.985" cy="347.217" r="3.31077" transform="rotate(-180 148.985 347.217)" fill="#8A3FFC"/>
<circle cx="100.427" cy="347.217" r="3.31077" transform="rotate(-180 100.427 347.217)" fill="#8A3FFC"/>
<circle cx="51.8689" cy="347.217" r="3.31077" transform="rotate(-180 51.8689 347.217)" fill="#8A3FFC"/>
<circle cx="3.31093" cy="347.217" r="3.31077" transform="rotate(-180 3.31093 347.217)" fill="#8A3FFC"/>
<circle cx="197.543" cy="298.659" r="3.31077" transform="rotate(-180 197.543 298.659)" fill="#8A3FFC"/>
<circle cx="148.985" cy="298.659" r="3.31077" transform="rotate(-180 148.985 298.659)" fill="#8A3FFC"/>
<circle cx="100.427" cy="298.659" r="3.31077" transform="rotate(-180 100.427 298.659)" fill="#8A3FFC"/>
<circle cx="51.8689" cy="298.659" r="3.31077" transform="rotate(-180 51.8689 298.659)" fill="#8A3FFC"/>
<circle cx="3.31087" cy="298.659" r="3.31077" transform="rotate(-180 3.31087 298.659)" fill="#8A3FFC"/>
<circle cx="197.543" cy="250.101" r="3.31077" transform="rotate(-180 197.543 250.101)" fill="#8A3FFC"/>
<circle cx="148.985" cy="250.101" r="3.31077" transform="rotate(-180 148.985 250.101)" fill="#8A3FFC"/>
<circle cx="100.427" cy="250.101" r="3.31077" transform="rotate(-180 100.427 250.101)" fill="#8A3FFC"/>
<circle cx="51.8689" cy="250.101" r="3.31077" transform="rotate(-180 51.8689 250.101)" fill="#8A3FFC"/>
<circle cx="3.31093" cy="250.101" r="3.31077" transform="rotate(-180 3.31093 250.101)" fill="#8A3FFC"/>
<circle cx="197.543" cy="201.543" r="3.31077" transform="rotate(-180 197.543 201.543)" fill="#8A3FFC"/>
<circle cx="148.985" cy="201.543" r="3.31077" transform="rotate(-180 148.985 201.543)" fill="#8A3FFC"/>
<circle cx="100.427" cy="201.543" r="3.31077" transform="rotate(-180 100.427 201.543)" fill="#8A3FFC"/>
<circle cx="51.8687" cy="201.543" r="3.31077" transform="rotate(-180 51.8687 201.543)" fill="#8A3FFC"/>
<circle cx="3.31093" cy="201.543" r="3.31077" transform="rotate(-180 3.31093 201.543)" fill="#8A3FFC"/>
<circle cx="197.543" cy="152.985" r="3.31077" transform="rotate(-180 197.543 152.985)" fill="#8A3FFC"/>
<circle cx="148.985" cy="152.985" r="3.31077" transform="rotate(-180 148.985 152.985)" fill="#8A3FFC"/>
<circle cx="100.427" cy="152.985" r="3.31077" transform="rotate(-180 100.427 152.985)" fill="#8A3FFC"/>
<circle cx="51.8688" cy="152.985" r="3.31077" transform="rotate(-180 51.8688 152.985)" fill="#8A3FFC"/>
<circle cx="3.31093" cy="152.985" r="3.31077" transform="rotate(-180 3.31093 152.985)" fill="#8A3FFC"/>
<circle cx="197.543" cy="104.427" r="3.31077" transform="rotate(-180 197.543 104.427)" fill="#8A3FFC"/>
<circle cx="148.985" cy="104.427" r="3.31077" transform="rotate(-180 148.985 104.427)" fill="#8A3FFC"/>
<circle cx="100.427" cy="104.427" r="3.31077" transform="rotate(-180 100.427 104.427)" fill="#8A3FFC"/>
<circle cx="51.8689" cy="104.427" r="3.31077" transform="rotate(-180 51.8689 104.427)" fill="#8A3FFC"/>
<circle cx="3.31087" cy="104.427" r="3.31077" transform="rotate(-180 3.31087 104.427)" fill="#8A3FFC"/>
<circle cx="197.543" cy="55.8687" r="3.31077" transform="rotate(-180 197.543 55.8687)" fill="#8A3FFC"/>
<circle cx="148.985" cy="55.8687" r="3.31077" transform="rotate(-180 148.985 55.8687)" fill="#8A3FFC"/>
<circle cx="100.427" cy="55.8687" r="3.31077" transform="rotate(-180 100.427 55.8687)" fill="#8A3FFC"/>
<circle cx="51.8689" cy="55.8686" r="3.31077" transform="rotate(-180 51.8689 55.8686)" fill="#8A3FFC"/>
<circle cx="3.31093" cy="55.8686" r="3.31077" transform="rotate(-180 3.31093 55.8686)" fill="#8A3FFC"/>
<circle cx="197.543" cy="7.31075" r="3.31077" transform="rotate(-180 197.543 7.31075)" fill="#8A3FFC"/>
<circle cx="148.985" cy="7.31078" r="3.31077" transform="rotate(-180 148.985 7.31078)" fill="#8A3FFC"/>
<circle cx="100.427" cy="7.31075" r="3.31077" transform="rotate(-180 100.427 7.31075)" fill="#8A3FFC"/>
<circle cx="51.8689" cy="7.31081" r="3.31077" transform="rotate(-180 51.8689 7.31081)" fill="#8A3FFC"/>
<circle cx="3.31087" cy="7.31078" r="3.31077" transform="rotate(-180 3.31087 7.31078)" fill="#8A3FFC"/>
<circle cx="675.542" cy="588.333" r="3.31077" transform="rotate(-180 675.542 588.333)" fill="#8A3FFC"/>
<circle cx="626.985" cy="588.333" r="3.31077" transform="rotate(-180 626.985 588.333)" fill="#8A3FFC"/>
<circle cx="578.427" cy="588.333" r="3.31077" transform="rotate(-180 578.427 588.333)" fill="#8A3FFC"/>
<circle cx="529.869" cy="588.333" r="3.31077" transform="rotate(-180 529.869 588.333)" fill="#8A3FFC"/>
<circle cx="481.311" cy="588.333" r="3.31077" transform="rotate(-180 481.311 588.333)" fill="#8A3FFC"/>
<circle cx="675.543" cy="539.775" r="3.31077" transform="rotate(-180 675.543 539.775)" fill="#8A3FFC"/>
<circle cx="626.985" cy="539.775" r="3.31077" transform="rotate(-180 626.985 539.775)" fill="#8A3FFC"/>
<circle cx="578.427" cy="539.775" r="3.31077" transform="rotate(-180 578.427 539.775)" fill="#8A3FFC"/>
<circle cx="529.869" cy="539.775" r="3.31077" transform="rotate(-180 529.869 539.775)" fill="#8A3FFC"/>
<circle cx="481.311" cy="539.775" r="3.31077" transform="rotate(-180 481.311 539.775)" fill="#8A3FFC"/>
<circle cx="675.543" cy="491.217" r="3.31077" transform="rotate(-180 675.543 491.217)" fill="#8A3FFC"/>
<circle cx="626.985" cy="491.217" r="3.31077" transform="rotate(-180 626.985 491.217)" fill="#8A3FFC"/>
<circle cx="578.427" cy="491.217" r="3.31077" transform="rotate(-180 578.427 491.217)" fill="#8A3FFC"/>
<circle cx="529.869" cy="491.217" r="3.31077" transform="rotate(-180 529.869 491.217)" fill="#8A3FFC"/>
<circle cx="481.311" cy="491.217" r="3.31077" transform="rotate(-180 481.311 491.217)" fill="#8A3FFC"/>
<circle cx="675.543" cy="442.659" r="3.31077" transform="rotate(-180 675.543 442.659)" fill="#8A3FFC"/>
<circle cx="626.985" cy="442.659" r="3.31077" transform="rotate(-180 626.985 442.659)" fill="#8A3FFC"/>
<circle cx="578.427" cy="442.659" r="3.31077" transform="rotate(-180 578.427 442.659)" fill="#8A3FFC"/>
<circle cx="529.869" cy="442.659" r="3.31077" transform="rotate(-180 529.869 442.659)" fill="#8A3FFC"/>
<circle cx="481.311" cy="442.659" r="3.31077" transform="rotate(-180 481.311 442.659)" fill="#8A3FFC"/>
<circle cx="675.543" cy="394.101" r="3.31077" transform="rotate(-180 675.543 394.101)" fill="#8A3FFC"/>
<circle cx="626.985" cy="394.101" r="3.31077" transform="rotate(-180 626.985 394.101)" fill="#8A3FFC"/>
<circle cx="578.427" cy="394.101" r="3.31077" transform="rotate(-180 578.427 394.101)" fill="#8A3FFC"/>
<circle cx="529.869" cy="394.101" r="3.31077" transform="rotate(-180 529.869 394.101)" fill="#8A3FFC"/>
<circle cx="481.311" cy="394.101" r="3.31077" transform="rotate(-180 481.311 394.101)" fill="#8A3FFC"/>
<circle cx="675.543" cy="345.543" r="3.31077" transform="rotate(-180 675.543 345.543)" fill="#8A3FFC"/>
<circle cx="626.985" cy="345.543" r="3.31077" transform="rotate(-180 626.985 345.543)" fill="#8A3FFC"/>
<circle cx="578.427" cy="345.543" r="3.31077" transform="rotate(-180 578.427 345.543)" fill="#8A3FFC"/>
<circle cx="529.869" cy="345.543" r="3.31077" transform="rotate(-180 529.869 345.543)" fill="#8A3FFC"/>
<circle cx="481.311" cy="345.543" r="3.31077" transform="rotate(-180 481.311 345.543)" fill="#8A3FFC"/>
<circle cx="675.543" cy="296.985" r="3.31077" transform="rotate(-180 675.543 296.985)" fill="#8A3FFC"/>
<circle cx="626.985" cy="296.985" r="3.31077" transform="rotate(-180 626.985 296.985)" fill="#8A3FFC"/>
<circle cx="578.427" cy="296.985" r="3.31077" transform="rotate(-180 578.427 296.985)" fill="#8A3FFC"/>
<circle cx="529.869" cy="296.985" r="3.31077" transform="rotate(-180 529.869 296.985)" fill="#8A3FFC"/>
<circle cx="481.311" cy="296.985" r="3.31077" transform="rotate(-180 481.311 296.985)" fill="#8A3FFC"/>
<circle cx="675.543" cy="248.427" r="3.31077" transform="rotate(-180 675.543 248.427)" fill="#8A3FFC"/>
<circle cx="626.985" cy="248.427" r="3.31077" transform="rotate(-180 626.985 248.427)" fill="#8A3FFC"/>
<circle cx="578.427" cy="248.427" r="3.31077" transform="rotate(-180 578.427 248.427)" fill="#8A3FFC"/>
<circle cx="529.869" cy="248.427" r="3.31077" transform="rotate(-180 529.869 248.427)" fill="#8A3FFC"/>
<circle cx="481.311" cy="248.427" r="3.31077" transform="rotate(-180 481.311 248.427)" fill="#8A3FFC"/>
<circle cx="675.543" cy="199.869" r="3.31077" transform="rotate(-180 675.543 199.869)" fill="#8A3FFC"/>
<circle cx="626.985" cy="199.869" r="3.31077" transform="rotate(-180 626.985 199.869)" fill="#8A3FFC"/>
<circle cx="578.427" cy="199.869" r="3.31077" transform="rotate(-180 578.427 199.869)" fill="#8A3FFC"/>
<circle cx="529.869" cy="199.869" r="3.31077" transform="rotate(-180 529.869 199.869)" fill="#8A3FFC"/>
<circle cx="481.311" cy="199.869" r="3.31077" transform="rotate(-180 481.311 199.869)" fill="#8A3FFC"/>
<circle cx="675.543" cy="151.311" r="3.31077" transform="rotate(-180 675.543 151.311)" fill="#8A3FFC"/>
<circle cx="626.985" cy="151.311" r="3.31077" transform="rotate(-180 626.985 151.311)" fill="#8A3FFC"/>
<circle cx="578.427" cy="151.311" r="3.31077" transform="rotate(-180 578.427 151.311)" fill="#8A3FFC"/>
<circle cx="529.869" cy="151.311" r="3.31077" transform="rotate(-180 529.869 151.311)" fill="#8A3FFC"/>
<circle cx="481.311" cy="151.311" r="3.31077" transform="rotate(-180 481.311 151.311)" fill="#8A3FFC"/>
<path d="M522.142 64.542C576.514 81.484 645.07 88.576 679.348 123.248C713.232 158.314 713.232 221.354 697.472 274.938C681.318 328.522 649.798 373.044 625.37 424.658C600.548 476.272 583.212 534.978 544.6 569.65C505.988 604.322 446.494 614.96 390.152 609.838C333.416 604.716 279.832 583.44 234.128 553.102C188.424 522.37 150.6 482.182 118.292 436.084C85.59 389.592 58.798 336.796 56.434 282.424C54.07 228.446 76.134 172.892 108.048 125.218C139.568 77.544 180.544 37.75 228.612 17.262C276.68 -3.22599 331.84 -4.408 379.514 8.2C427.188 21.202 467.77 47.994 522.142 64.542Z" fill="#8A3FFC"/>
<path fill-rule="evenodd" clip-rule="evenodd" d="M583.864 317.07C578.706 317.576 573.549 318.081 568.391 318.586C543.691 320.471 519 324.407 494.488 326.77C493.878 325.778 492.683 325.941 491.958 326.63C489.512 326.417 486.771 324.549 484.555 326.492C484.483 326.482 484.411 326.47 484.339 326.463C480.394 318.901 477.667 310.835 475.021 302.759C473.331 297.794 471.059 292.987 466.859 289.653C459.691 284.684 443.269 274.607 434.853 275.031C434.713 273.526 434.011 271.975 432.858 270.973C435.4 266.644 425.235 263.82 424.518 264.322C424.978 249.861 418.167 237.302 403.149 234.423C389.695 231.623 370.558 231.152 363.322 245.195C362.527 245.106 354.396 245.064 353.61 245.152C352.386 243.604 338.954 258.265 344.459 263.369C295.24 285.115 267.253 282.52 253.63 343.653C251.789 349.396 251.654 355.68 249.71 361.295C242.79 377.43 237.179 394.612 235.782 412.17C232.409 413.033 232.021 418.973 235.928 419.833C237.42 420.161 238.668 420.61 239.757 421.461C238.906 435.849 242.39 468.716 244.586 468.615C249.062 482.844 269.029 486.859 283.165 481.859C280.728 486.438 283.165 489.317 283.165 491.763C334.029 493.685 389.644 492.578 440.495 495.214C447 495.122 453.841 496.81 460.257 495.838C464.17 494.901 464.176 488.757 460.207 487.997L477.549 484.236C477.162 484.09 484.697 479.083 490.392 469.729C495.694 459.264 492.086 446.632 494.488 435.249C513.25 433.716 532.321 433.061 550.877 429.888C553.408 437.448 564.36 428.406 567.842 424.769C567.837 424.763 567.833 424.758 567.828 424.752C569.513 424.292 570.864 422.714 570.91 420.847C572.091 419.161 572.339 416.785 571.206 415.155C576.399 385.226 584.316 354.668 587.178 324.458C588.19 324.234 589.143 323.791 589.95 323.108L589.885 323.043C591.253 321.519 591.519 318.889 589.238 317.595C587.398 316.55 585.861 316.874 583.864 317.07Z" fill="#EDB98A"/>
<path fill-rule="evenodd" clip-rule="evenodd" d="M387.711 429.087L391.684 431.612L424.191 442.073L444.056 444.598L460.309 442.073V469.849L463.56 495.822C462.115 498.467 448.39 498.467 422.385 495.822C405.807 494.136 345.22 493.318 331.426 492.958L330.644 492.936C314.434 492.469 298.422 492.469 282.606 492.936V483.197L327.754 460.831L368.207 438.105L387.711 429.087ZM364.678 242.925L367.663 245.152L361.145 255.848L392.898 281.499V301.988L402.951 311.484L408.697 301.988L416.793 291.234L422.547 273.802L420.588 262.318L424.528 261.947C424.547 262.732 424.544 263.525 424.518 264.322C425.236 263.82 435.4 266.644 432.858 270.973C434.011 271.975 434.713 273.526 434.853 275.031C443.269 274.607 459.692 284.684 466.859 289.653C471.059 292.987 473.331 297.794 475.021 302.759L475.418 303.97L475.829 305.214L476.243 306.456C478.528 313.287 480.996 320.056 484.339 326.463C484.411 326.47 484.483 326.482 484.555 326.492C486.771 324.549 489.512 326.417 491.958 326.63C492.666 325.957 493.822 325.786 494.445 326.703L494.488 326.77L464.014 332.766L443.911 403.196L426.403 389.003L417.006 390.399L392.189 399.338L363.326 406.826L297.435 424.969H289.044L240.217 413.193L235.817 411.742C237.27 394.333 242.847 377.299 249.71 361.295C251.654 355.68 251.789 349.396 253.63 343.653C267.254 282.52 295.24 285.115 344.459 263.369C338.954 258.265 352.386 243.604 353.61 245.152L353.686 245.145L353.853 245.136L354.068 245.129C355.988 245.073 362.608 245.115 363.322 245.195C363.736 244.392 364.189 243.636 364.678 242.925Z" fill="#FFCF77"/>
<path fill-rule="evenodd" clip-rule="evenodd" d="M588.735 319.208L587.827 324.261C587.611 324.331 587.391 324.391 587.169 324.44C586.884 327.452 586.548 330.466 586.17 333.484L580.543 364.81C579.572 370.352 578.651 375.905 577.736 381.461L576.524 387.429L575.773 391.138C574.153 399.17 572.579 407.176 571.197 415.137C571.406 415.438 571.567 415.763 571.685 416.104L571.579 416.553L571.505 416.852L571.429 417.148C570.339 421.332 568.443 425.391 563.973 426.622C560.602 427.55 556.903 427.635 553.421 428.001L553.036 428.043L492.118 434.884C484.757 435.711 477.4 436.563 470.044 437.423L463.667 438.17C454.778 439.198 445.838 440.007 437.08 441.868C436.758 441.936 436.491 442.065 436.274 442.234C438.037 435.566 439.726 428.908 441.256 422.173C442.978 414.593 444.613 406.998 446.455 399.445C450.165 384.23 454.325 369.114 458.879 354.128C459.835 350.983 460.812 347.844 461.811 344.712L462.512 342.523L463.052 340.778C463.887 338.119 464.92 335.385 467.369 333.918C470.234 332.201 474.142 331.916 477.392 331.322L479.592 330.909C482.885 330.296 486.182 329.706 489.483 329.139C505.287 326.424 521.181 324.246 537.133 322.61C553.732 320.907 570.389 319.801 587.067 319.261L588.735 319.208ZM437.536 423.655L437.692 423.669L435.416 441.835C435.052 441.581 434.591 441.425 434.027 441.426C426.563 441.448 419.408 439.066 412.488 436.447L411.434 436.046L408.496 434.918C405.509 433.775 402.507 432.657 399.448 431.73L398.212 431.358L397.583 431.172C395.268 430.497 392.832 429.884 390.423 429.731L390.095 429.713L390.796 429.345C390.899 429.291 390.989 429.231 391.068 429.167C392.394 429.265 393.723 429.238 395.122 428.986C397.752 428.513 400.309 427.599 402.658 426.327L403.707 425.759L404.136 425.532L404.419 425.385L404.702 425.242C406.718 424.238 408.647 423.61 411.194 424.144C414.085 424.752 416.618 426.308 419.224 427.623L419.687 427.853L419.998 428.003L420.315 428.152L420.635 428.298C424.16 429.882 429.768 431.591 431.12 426.806C431.662 424.883 431.237 423.083 430.296 421.504C432.051 421.352 435.187 423.42 437.536 423.655ZM525.26 363.8L525.303 364.018C525.801 366.697 524.551 369.261 522.66 371.129C521.109 372.662 518.363 373.513 517.585 375.717C517.143 376.972 517.614 378.161 518.524 378.99L518.314 379.094L518.109 379.198L517.909 379.304L517.714 379.41L517.524 379.517C514.435 381.29 511.919 384.173 514.705 387.655C517.866 391.606 524.471 391.734 529.125 391.424L529.439 391.403C533.951 391.064 539.296 389.551 541.743 385.39C542.865 383.48 542.742 381.172 541.177 379.538C540.234 378.553 538.55 377.541 537.006 377.421C537.074 376.552 536.97 375.713 536.664 375.005C536.002 373.474 534.242 372.444 532.544 372.407C532.681 369.156 530.075 365.948 528.155 363.35L527.96 363.083L527.769 362.821C526.889 361.598 525.005 362.283 525.26 363.8ZM527.835 367.259L529.584 373.801L529.554 373.855C528.938 375.023 530.552 376.349 531.51 375.368L531.606 375.263C532.743 374.091 534.487 375.667 534.509 376.915C534.54 378.671 533.395 380.029 532.031 380.927L531.936 380.989L531.684 381.144C530.565 381.883 531.412 383.428 532.643 383.24C534.166 383.008 535.413 381.801 536.182 380.295C537.005 380.53 537.94 380.502 538.806 380.985C540.988 382.204 539.733 384.336 538.312 385.624L538.255 385.676L538.139 385.777C535.533 387.997 531.984 388.768 528.639 388.933L528.446 388.942C525.067 389.086 520.665 389.135 517.769 387.15C515.967 385.915 515.445 384.163 516.97 382.504C517.833 381.566 518.704 380.621 519.6 379.706C520.942 380.346 522.14 380.087 523.512 379.481C523.688 379.404 523.591 379.135 523.418 379.135C522.661 379.134 519.884 377.73 519.748 376.834C519.624 376.003 521.16 375.304 521.908 374.903L522.016 374.844L522.11 374.789C522.892 374.316 523.627 373.765 524.3 373.147C526.007 371.578 527.246 369.61 527.788 367.456L527.835 367.259Z" fill="white"/>
<path fill-rule="evenodd" clip-rule="evenodd" d="M364.26 241.934C365.792 238.088 370.973 239.583 370.395 243.624C370.05 246.044 368.722 248.601 367.53 250.722C366.559 252.449 365.451 254.134 363.95 255.429C366.623 257.919 369.397 260.319 372.242 262.597C375.346 265.083 378.61 267.374 381.984 269.48C384.942 271.327 388.035 272.963 390.823 275.07C393.416 277.03 395.778 279.386 396.98 282.462C398.261 285.737 397.704 289.12 396.761 292.394L396.653 292.764C395.69 296.007 394.022 299.916 396.334 302.971C397.512 304.527 399.223 305.629 400.701 306.872C402.014 307.977 403.246 309.179 404.377 310.47C406.842 313.285 408.847 316.452 410.112 319.98L410.225 320.301C411.31 323.424 412.102 327.251 410.637 330.318C410.217 331.197 408.861 330.911 408.625 330.055C408.093 328.116 408.121 326.085 407.674 324.118C407.21 322.073 406.437 320.132 405.427 318.295C403.474 314.741 400.829 311.706 397.703 309.14L396.768 308.38C394.33 306.382 392.09 304.262 391.595 300.954C391.065 297.416 392.485 294.046 393.398 290.696C394.034 288.362 394.242 286.125 393.554 284.016C392.714 285.385 391.569 286.685 390.663 287.843C388.858 290.152 387.036 292.448 385.219 294.747C383.355 297.105 381.538 299.499 379.808 301.956C379.034 303.056 378.269 304.161 377.505 305.268C376.931 306.099 376.131 306.931 375.505 307.779C375.657 308.233 375.646 308.756 375.37 309.127C372.053 313.604 367.333 304.264 366.102 301.903C363.596 297.098 361.73 291.992 359.215 287.187C356.609 282.206 353.642 277.358 350.334 272.81C348.334 270.06 346.091 267.476 344.261 264.638C339.95 268.543 334.276 271.16 329.065 273.534C323.339 276.141 317.391 278.272 311.521 280.534L309.787 281.206C299.672 285.149 289.31 289.48 280.903 296.483C271.023 304.713 265.178 316.182 260.827 328.06C255.818 341.733 251.674 355.776 247.811 369.809C245.834 376.99 243.959 384.202 242.195 391.438C240.642 397.813 239.354 404.252 237.555 410.561C241.203 410.432 245.364 411.842 248.478 412.25C262.672 414.105 276.675 417.063 290.076 422.185C291.732 422.817 292.211 424.468 291.85 425.806C292.805 425.537 293.759 425.265 294.713 424.997C293.667 423.397 294.167 420.535 294.249 418.761L294.254 418.639C294.338 416.275 294.595 413.909 294.762 411.549C295.079 407.052 295.492 402.586 296.041 398.114L296.18 396.996C296.802 392.131 297.262 387.237 297.941 382.379L298.021 381.823C297.696 380.581 297.317 379.353 296.919 378.131C295.86 374.876 294.364 371.811 293.053 368.658C292.899 368.287 293.428 368.073 293.675 368.296C295.895 370.291 297.658 372.82 299.075 375.467C299.099 375.342 299.121 375.217 299.147 375.092L299.308 374.298C299.707 372.36 300.192 370.321 301.382 368.749C301.509 368.582 301.759 368.547 301.879 368.749C303.019 370.674 303.146 373.112 303.321 375.303C303.52 377.781 303.545 380.291 303.509 382.776C303.441 387.633 303.099 392.503 302.826 397.352C302.558 402.116 302.031 406.82 301.354 411.538L301.225 412.423C300.893 414.668 300.622 416.942 300.185 419.172L300.061 419.779C299.828 420.885 299.684 422.445 299.219 423.74C311.188 420.406 323.175 417.148 335.185 413.947C343.865 411.633 352.555 409.354 361.241 407.06C361.699 406.236 362.27 405.465 362.982 404.776C365.328 402.507 368.439 401.494 371.291 403.241C371.523 403.384 371.542 403.746 371.291 403.884C370.744 404.182 370.197 404.488 369.659 404.807L374.874 403.396C378.772 402.341 382.717 401.022 386.708 400.287C394.056 396.665 401.961 394.043 409.703 391.452L410.615 391.144C414.578 389.794 418.678 388.283 422.774 387.535C425.772 386.987 429.291 387.648 430.497 390.716C432.024 391.72 433.46 392.901 434.846 394.062C435.847 394.901 436.808 395.794 437.784 396.662L437.964 396.82C438.763 397.512 439.396 397.975 439.591 399.077C439.692 399.645 439.33 400.415 438.628 400.339C436.479 400.109 434.731 397.621 433.273 396.135C432.147 394.987 431.012 393.799 429.984 392.537C429.384 392.863 428.563 392.804 428.182 392.083C426.204 388.342 420.786 390.934 417.788 391.821L413.494 393.091C411.347 393.726 409.2 394.365 407.058 395.015C401.169 396.801 395.309 398.8 389.367 400.44C389.899 401.023 389.825 402.062 388.816 402.457C384.164 404.28 379.061 405.222 374.229 406.473C371.178 407.263 368.129 408.058 365.081 408.858C364.558 409.703 364.182 410.66 364.024 411.774C363.442 415.868 364.564 420.592 365.657 424.553L365.822 425.143C366.72 428.327 368.041 432.23 370.792 434.241C371.463 434.731 372.318 435.072 373.18 435.15C378.564 432.381 383.948 429.614 389.335 426.851C390.333 426.34 391.255 427.033 391.479 427.856C393.379 427.545 395.274 427.055 397 426.47C399.9 425.486 402.165 423.61 404.884 422.312C410.145 419.802 415.517 422.885 420.228 425.23L421.314 425.762C423.426 426.786 427.821 428.752 428.834 425.953C429.814 423.245 426.715 420.35 424.713 419.131C422.327 417.677 419.549 416.9 416.852 416.252C415.313 415.882 413.754 415.58 412.186 415.359C410.408 415.109 408.571 415.147 406.858 414.571C406.007 414.285 405.877 412.936 406.858 412.713C409.494 412.113 412.64 412.767 415.391 413.435L416.829 413.789C419.6 414.468 422.398 415.32 424.922 416.675C426.758 417.661 428.696 419.158 429.961 420.99C431.06 419.971 432.428 420.005 433.853 420.383L434.626 420.598C435.904 420.951 436.939 421.195 438.181 420.95C438.348 420.047 438.516 419.143 438.696 418.24C440.467 409.361 442.409 400.516 444.552 391.718C448.248 376.543 452.525 361.534 457.347 346.68L457.831 345.195C458.943 341.797 459.838 338.095 461.631 334.974C463.327 332.022 466.044 330.322 469.272 329.422C472.935 328.4 476.784 327.865 480.521 327.176C481.355 327.022 482.19 326.876 483.025 326.725C482.32 325.453 481.793 324.01 481.319 322.902L481.236 322.711C480.218 320.392 479.303 318.031 478.419 315.657L477.758 313.873C476.163 309.576 474.517 305.35 472.274 301.332C469.913 297.103 466.781 293.645 462.878 290.783C454.918 284.948 445.323 281.972 437.603 275.736C437.287 275.48 437.692 275.044 438.014 275.205C443.227 277.821 448.854 279.6 454.276 281.73L455.346 282.151C459.631 283.848 463.983 285.695 467.693 288.442C471.829 291.506 475.086 295.31 477.534 299.834C479.947 304.293 481.49 309.284 483.192 314.048L483.648 315.317C484.334 317.22 485.043 319.117 485.856 320.969C486.501 322.44 487.705 324.118 488.252 325.798C489.749 325.538 491.246 325.278 492.745 325.028C525.203 319.616 558.024 316.436 590.918 315.506C592.205 315.469 592.871 316.695 592.681 317.817C589.525 336.46 586.719 355.166 583.641 373.823C582.298 381.966 580.927 390.103 579.525 398.235C578.815 402.355 577.993 406.46 577.32 410.586C576.777 413.919 576.383 417.277 575.45 420.532C574.614 423.451 573.33 426.265 571.222 428.492C568.949 430.893 565.777 432.054 562.584 432.603C554.479 433.997 546.165 434.566 537.994 435.494L494.49 440.437C495.126 446.208 495.174 451.889 494.882 457.728L494.716 460.915C494.58 463.478 494.417 466.046 494.049 468.583C493.586 471.766 492.129 474.461 489.982 476.838C488.01 479.021 485.614 480.884 483.284 482.669C480.866 484.522 478.367 486.311 475.523 487.457L475.154 487.604C472.659 488.576 467.98 490.083 464.57 489.532C465.016 491.763 465.878 494.161 465.114 496.367C464.759 497.392 463.417 497.904 462.595 497.032C460.966 495.304 460.839 493.021 460.453 490.766C460.052 488.42 459.706 486.066 459.399 483.705C458.804 479.142 458.342 474.536 458.2 469.934C458.055 465.208 458.111 460.475 458.366 455.754C458.497 453.329 458.66 450.906 458.968 448.497C459.099 447.47 459.234 446.442 459.387 445.417C459.443 445.043 459.505 444.671 459.572 444.3L455.667 444.74C449.68 445.408 443.69 446.01 437.661 446.104C436.946 446.115 436.397 445.791 436.038 445.317C435.656 445.94 434.989 446.385 434.036 446.381C425.615 446.35 417.774 443.6 410.115 440.359C406.255 438.725 402.455 436.956 398.589 435.336C394.98 433.824 391.122 432.745 387.601 431.041L378.347 435.889C378.279 436.128 378.192 436.353 378.1 436.541C377.497 437.77 376.309 438.436 375.096 438.938C373.932 439.421 372.726 439.57 371.551 439.449C364.533 443.122 357.513 446.791 350.489 450.452L343.463 454.11C329.465 461.389 315.522 468.788 301.436 475.896L300.399 476.417C295.534 478.854 290.309 481.324 284.909 483.167C284.813 484.532 284.874 485.859 284.989 487.304L285.016 487.619C285.177 489.326 285.523 491.465 284.151 492.681C283.438 493.313 282.163 493.315 281.678 492.362C280.798 490.634 281.588 487.909 281.868 486.032C281.966 485.364 282.087 484.677 282.266 484.012C276.075 485.852 269.698 486.745 263.399 485.711C257.266 484.706 252.516 480.847 248.687 476.127C244.646 471.146 241.774 465.342 240.233 459.12C238.479 452.039 238.365 444.727 238.406 437.475C238.45 429.752 238.736 421.991 239.676 414.32C238.646 414.078 237.503 413.868 236.462 413.941C235.946 414.765 234.946 415.112 234.042 415.005C232.076 417.17 237.062 419.383 238.656 419.938C239.209 420.13 239.15 421.027 238.511 421.001L238.11 420.982C235.647 420.851 233.103 420.431 231.656 418.146C230.495 416.313 230.844 414.144 232.227 412.65C233.14 404.024 235.324 395.624 237.357 387.21C239.351 378.951 241.569 370.745 243.92 362.581L244.974 358.926C248.675 346.125 252.545 333.219 257.65 320.926C260.2 314.788 263.137 308.763 267.118 303.411C270.829 298.421 275.211 294.152 280.248 290.506C289.636 283.708 300.654 279.6 311.478 275.686L311.963 275.511C317.572 273.485 323.168 271.434 328.714 269.238C333.618 267.296 338.317 264.835 343.198 262.863C343.04 262.576 342.887 262.285 342.739 261.991L342.649 262.067C342.633 262.079 342.618 262.091 342.601 262.102C342.11 262.442 341.388 262.275 340.983 261.894C339.841 260.817 340.228 259.623 340.99 258.506L341.089 258.364C342.022 257.059 342.854 255.68 343.714 254.328L344.253 253.483C345.698 251.223 347.217 248.95 349.143 247.083C350.035 246.218 351.011 245.571 352.046 245.089C351.958 244.902 352.734 244.52 352.954 244.712C356.232 243.513 360.004 243.765 363.578 244.095L364.26 241.934ZM492.386 440.675L487.827 441.193C482.813 441.763 477.796 442.314 472.779 442.86L461.881 444.043C461.853 444.663 461.777 445.27 461.764 445.738C461.692 448.154 461.64 450.571 461.589 452.988C461.489 457.832 461.599 462.68 461.918 467.514C462.228 472.199 462.636 476.885 463.269 481.537L463.399 482.467L463.473 482.956C463.991 483.006 464.498 483.251 464.92 483.756C465.842 484.855 469.18 483.786 470.484 483.323C472.627 482.561 474.646 481.274 476.509 479.983C478.327 478.723 479.966 477.254 481.539 475.705L482.827 474.433C484.108 473.162 485.391 471.807 486.176 470.208C487.24 468.04 487.377 465.377 487.69 463.015C488.074 460.11 488.532 457.205 489.015 454.314L492.386 440.675ZM360.064 410.179L359.591 410.303C342.416 414.861 325.267 419.553 308.04 423.91C299.514 426.066 290.948 428.066 282.413 430.181L281.031 430.525C274.296 432.226 267.482 434.271 262.325 439.15C262.135 439.329 261.859 439.053 262.038 438.862C267.595 432.953 275.499 430.452 283.089 428.284C284.492 427.883 285.896 427.492 287.299 427.093C276.978 423.418 266.494 420.221 255.768 417.941C253.006 417.353 250.212 416.922 247.452 416.333C245.527 415.922 243.648 415.327 241.743 414.834L240.245 414.457L240.225 419.186C240.2 425.883 240.213 432.574 240.554 439.27L240.619 440.511C241.018 447.962 241.641 455.569 244.289 462.595C246.441 468.305 249.87 473.684 254.355 477.843C256.624 479.947 259.064 481.585 262.08 482.394C264.88 483.144 267.814 483.233 270.693 483.032C284.501 482.07 296.792 474.579 308.786 468.376C328.404 458.232 348.025 448.092 367.663 437.986C367.132 437.624 366.633 437.206 366.178 436.736C363.544 434.02 362.155 430.301 361.243 426.701C360.272 422.867 359.691 418.759 359.623 414.802L360.064 410.179ZM385.052 441.902C385.225 441.809 385.426 441.926 385.433 442.121C385.494 443.619 384.665 445.096 384.046 446.446L383.98 446.59C383.228 448.262 382.404 449.911 381.552 451.534C379.849 454.778 378.079 457.987 376.232 461.15C372.518 467.513 368.39 473.609 363.511 479.15C362.41 480.402 360.597 478.796 361.304 477.449C364.714 470.952 368.689 464.818 372.78 458.737C374.829 455.692 376.875 452.645 378.944 449.614C379.807 448.349 380.681 447.09 381.578 445.848L382.119 445.106L385.052 441.902ZM588.743 319.226C571.509 319.746 554.294 320.868 537.142 322.628C521.19 324.264 505.296 326.442 489.492 329.156C486.191 329.724 482.894 330.314 479.601 330.927L477.626 331.298C474.333 331.921 470.31 332.179 467.378 333.936C464.286 335.788 463.451 339.659 462.423 342.852C461.213 346.607 460.034 350.372 458.888 354.146C454.334 369.132 450.174 384.248 446.463 399.463C444.621 407.016 442.987 414.611 441.265 422.191C439.735 428.925 438.047 435.584 436.283 442.252C436.501 442.083 436.767 441.955 437.089 441.886C445.847 440.025 454.787 439.216 463.676 438.188L464.536 438.088C473.731 437.008 482.927 435.936 492.127 434.902L553.044 428.061C556.637 427.657 560.486 427.603 563.982 426.64C569.926 425.002 571.32 418.365 572.317 413.079L572.347 412.919C575.354 396.948 577.748 380.839 580.552 364.828L588.743 319.226ZM437.7 423.686C435.336 423.53 432.099 421.367 430.304 421.522C431.246 423.101 431.671 424.901 431.128 426.824C429.618 432.174 422.785 429.406 419.494 427.772C416.796 426.43 414.19 424.79 411.203 424.162C407.818 423.451 405.526 424.795 402.666 426.345C400.318 427.617 397.76 428.531 395.13 429.004C393.732 429.255 392.404 429.282 391.078 429.184C390.998 429.249 390.908 429.309 390.805 429.363L390.104 429.731C393.275 429.875 396.506 430.853 399.457 431.748C402.516 432.675 405.519 433.793 408.505 434.936L411.443 436.064C418.691 438.835 426.193 441.467 434.036 441.444C434.599 441.443 435.062 441.599 435.425 441.853L437.7 423.686ZM424.468 406.922C426.805 406.636 428.961 406.942 430.828 408.461C433.08 410.293 434.593 413.331 437.83 413.531C438.774 413.589 438.993 414.914 438.055 415.191C435.645 415.904 433.694 414.602 432.053 412.911L430.949 411.759C429.327 410.082 427.831 408.785 425.078 408.885C422.13 408.992 419.177 409.673 416.248 410.019C412.931 410.411 409.613 410.745 406.285 411.033C406.13 411.046 406.104 410.803 406.249 410.767L409.977 409.841L424.468 406.922ZM422.213 397.381L422.598 397.343C425.991 397.014 429.094 397.001 432.124 398.824L432.706 399.175C435.437 400.834 438.411 402.788 440.12 405.472C440.399 405.912 439.937 406.429 439.469 406.317C436.186 405.53 433.785 403.124 431.024 401.324C427.925 399.303 424.724 399.636 421.191 399.95C417.769 400.254 414.35 400.672 410.962 401.241C407.779 401.776 404.586 402.62 401.371 402.889L401.372 402.883C401.004 402.882 400.795 402.331 401.169 402.144C404.432 400.517 408.211 399.747 411.761 399.003L422.213 397.381ZM525.282 363.89C524.954 362.323 526.884 361.596 527.778 362.839L527.968 363.102C529.9 365.745 532.695 369.062 532.552 372.424C534.25 372.461 536.012 373.492 536.673 375.023C536.979 375.731 537.083 376.57 537.015 377.438C538.559 377.558 540.242 378.57 541.186 379.556C542.75 381.19 542.874 383.498 541.752 385.407C539.305 389.568 533.96 391.082 529.447 391.42L529.287 391.432C524.626 391.753 517.91 391.667 514.714 387.673C511.631 383.821 515.038 380.702 518.532 379.008C517.623 378.179 517.152 376.99 517.595 375.735C518.372 373.531 521.118 372.679 522.669 371.147C524.56 369.279 525.809 366.715 525.311 364.036L525.282 363.89ZM527.844 367.277C527.33 369.508 526.067 371.548 524.309 373.165C523.636 373.783 522.9 374.334 522.119 374.807L522.025 374.861C521.331 375.25 519.626 375.979 519.758 376.851C519.892 377.748 522.67 379.152 523.427 379.153C523.6 379.153 523.697 379.421 523.521 379.499C522.149 380.104 520.951 380.364 519.609 379.725C518.712 380.639 517.842 381.584 516.979 382.522C515.454 384.181 515.976 385.933 517.778 387.167C520.674 389.152 525.076 389.104 528.455 388.96C531.856 388.815 535.491 388.057 538.148 385.795L538.264 385.694C539.708 384.412 541.026 382.239 538.815 381.004C537.949 380.52 537.014 380.548 536.192 380.313C535.422 381.819 534.174 383.025 532.651 383.258C531.421 383.446 530.573 381.901 531.693 381.162L531.944 381.006C533.35 380.11 534.549 378.73 534.518 376.933C534.496 375.685 532.752 374.109 531.615 375.281L531.563 375.338C530.612 376.408 528.937 375.059 529.562 373.873L529.592 373.819L527.844 367.277ZM306.033 305.239C306.029 304.971 306.407 304.871 306.538 305.103C308.746 308.982 309.9 313.736 311.076 318.01C312.307 322.487 313.302 327.009 314.195 331.564C316.004 340.789 316.968 349.96 317.034 359.361C317.042 360.703 314.853 361.06 314.639 359.685C313.217 350.54 311.854 341.386 310.422 332.243C309.701 327.645 308.862 323.065 308.059 318.48L306.033 305.239ZM327.888 311.996C327.726 311.46 328.505 311.282 328.704 311.771C333.134 322.632 334.635 334.941 331.791 346.399C331.355 348.152 328.785 347.393 329.113 345.662L327.888 311.996ZM385.034 302.345C385.011 301.944 385.532 301.881 385.728 302.157C387.827 305.111 388.698 309.067 392.381 310.593C394.22 311.356 396.289 311.223 397.913 312.51C399 313.371 399.833 314.731 399.017 316.035C398.754 316.456 398.018 316.667 397.662 316.209C397.141 315.542 396.865 314.744 396.157 314.244C395.16 313.538 393.814 313.495 392.669 313.163C391.189 312.734 389.885 311.985 388.817 310.87L385.034 302.345ZM420.104 253.074C420.321 252.965 420.528 253.035 420.666 253.222C420.864 253.488 420.84 253.747 420.598 253.93C420.921 254.589 421.303 256.242 421.357 256.483C421.579 257.458 421.814 258.428 422.059 259.397C422.556 261.351 422.991 263.32 423.487 265.275C424.014 267.347 424.641 269.397 425.339 271.417C425.385 271.548 425.434 271.682 425.486 271.817L425.566 272.022L425.585 271.991C425.727 271.767 426.023 271.924 425.988 272.16C425.955 272.376 425.911 272.59 425.874 272.806L425.947 272.999C426.405 274.227 426.717 275.52 425.879 276.603C425.566 277.008 425.221 277.248 424.791 277.32C424.102 279.588 423.237 281.815 422.311 283.954L422.04 284.578C420.679 287.699 419.226 290.778 417.058 293.435C414.691 296.335 411.435 298.315 409.373 301.493C408.413 302.971 407.746 304.526 407.204 306.195L407 306.829C406.616 308.01 406.172 309.154 405.063 309.847C404.709 310.068 404.179 309.997 403.894 309.696C401.619 307.293 404 302.807 405.372 300.48C407.278 297.245 410.037 295.176 412.799 292.735C415.778 290.104 417.677 286.585 419.514 283.118C420.64 280.994 421.726 278.824 422.87 276.691C421.675 275.636 421.293 273.54 420.888 272.084L420.851 271.954C420.181 269.621 419.65 267.228 419.314 264.824C418.991 262.513 418.856 260.235 418.941 257.911L418.966 257.32L420.104 253.074ZM424.548 264.074C424.283 263.712 424.721 263.303 425.083 263.378C427.285 263.833 429.439 265.165 431.416 266.241L431.627 266.356C433.205 267.206 434.793 268.247 435.621 269.898C436.522 271.692 436.448 273.759 436.325 275.709L436.313 275.892C436.163 278.231 436.139 280.66 435.643 282.957C435.39 284.132 434.324 284.463 433.412 284.185C432.328 287.605 429.282 290.124 427.057 292.822C424.221 296.262 424.755 300.907 425.051 305.05C425.171 306.727 423.082 307.204 422.006 306.309L419.526 304.252C419.113 303.909 418.701 303.564 418.289 303.219C417.938 302.923 417.588 302.625 417.242 302.323L416.725 301.867C416.496 301.662 415.484 300.533 415.188 300.486C414.472 300.372 412.769 302.258 412.187 302.85L412.113 302.924C411.016 303.998 410.026 305.153 409.103 306.379C408.933 306.604 408.601 306.417 408.723 306.157C409.549 304.388 410.511 302.696 411.652 301.113L411.883 300.798C412.643 299.776 413.663 297.97 415.003 297.669C416.64 297.3 418.275 298.94 419.466 299.85L419.542 299.907C420.108 300.332 420.668 300.764 421.228 301.199C421.169 298.114 421.559 294.997 423.154 292.339C424.278 290.465 425.963 289.076 427.404 287.465C429.009 285.671 429.847 283.467 431.3 281.598C431.487 281.358 431.745 281.228 432.024 281.187C432.08 279.685 432.301 278.169 432.472 276.683L432.522 276.238C432.695 274.624 433.104 272.652 432.312 271.14C431.565 269.712 429.85 268.704 428.58 267.735L427.542 266.932L424.548 264.074ZM353.064 247.005C352.401 247.388 351.781 247.864 351.218 248.46C349.449 250.335 348.183 252.669 346.951 254.915C346.288 256.124 345.648 257.346 344.98 258.553C344.69 259.077 344.39 259.597 344.088 260.115C343.948 260.354 343.533 260.828 343.327 261.121C343.556 261.441 343.792 261.756 344.034 262.068C344.126 262.187 350.476 269.096 352.689 271.799C356.078 275.941 359.108 280.315 361.698 284.998C364.234 289.583 366.165 294.438 368.514 299.112C369.691 301.451 371.004 303.775 372.678 305.8C372.742 305.879 372.811 305.954 372.877 306.032C373.516 304.308 375.153 302.462 375.957 301.402L376.032 301.302C377.856 298.847 379.782 296.466 381.749 294.125C383.547 291.988 385.39 289.896 387.277 287.84L387.987 287.07C389.302 285.651 390.973 283.528 392.898 282.515C392.691 282.147 392.453 281.784 392.178 281.426C390.374 279.071 387.825 277.363 385.309 275.822L383.677 274.83C377.527 271.087 371.473 267.171 366.133 262.307C363.308 259.733 360.523 257.038 358.148 254.036L357.308 252.975L353.064 247.005ZM363.326 245.152C360.445 245.393 357.335 245.335 354.674 246.273C357.04 248.507 359.289 250.919 361.6 253.191C361.805 251.654 362.225 250.137 362.582 248.639" fill="black"/>
<path fill-rule="evenodd" clip-rule="evenodd" d="M460.489 127.821C460.368 123.507 454.099 121.716 452.287 125.988C452.175 126.103 452.053 126.213 451.938 126.311C452.505 125.824 451.32 126.63 451.127 126.729C450.962 126.815 450.793 126.891 450.625 126.971C449.46 116.043 445.506 104.262 435.287 98.7767C421.034 91.8594 404.565 90.5091 388.929 91.1962C381.008 91.6669 371.861 92.9344 364.824 88.9237C362.631 87.674 360.874 85.7068 358.396 84.9349C350.573 82.8169 347.025 90.8559 348.091 97.4671C344.754 97.4935 341.445 99.3424 340.005 102.386C339.159 104.188 339.174 106.132 338.445 107.94C336.207 112.524 333.007 115.82 334.816 121.379C331.634 125.004 333.448 130.492 336.017 133.963C337.285 135.767 338.795 137.5 339.725 139.521C340.626 141.455 339.265 143.749 338.508 145.584C332.907 158.876 333.227 173.515 336.241 187.38C330.193 190.006 328.378 198.217 332.321 203.387C333.678 205.214 335.333 205.892 337.211 207.016C339.587 208.325 337.646 213.567 338.407 216.099C339.441 222.28 345.063 226.086 350.623 222.072C354.151 221.538 356.996 231.811 359.558 234.389C361.137 236.467 362.889 238.333 364.794 240.055C370.471 254.673 399.559 262.086 413.941 261.24C429.001 259.662 439.161 246.861 447.621 235.5C451.965 229.447 454.791 222.672 455.818 215.282C456.85 207.855 456.399 200.415 455.701 192.979C454.235 177.181 451.922 154.42 450.429 138.451C455.826 138.006 460.652 133.408 460.489 127.821Z" fill="#EDB98A"/>
<path fill-rule="evenodd" clip-rule="evenodd" d="M352.903 87.0373C353.952 86.0024 355.669 87.0642 356.805 87.896L357.056 88.0828L357.776 88.6302C359.408 89.8896 360.936 91.2581 362.699 92.3479C364.623 93.5372 366.713 94.4832 368.835 95.2586C372.951 96.7628 377.379 97.4376 381.743 97.6509C399.597 98.5228 420.377 89.1345 436.581 100.346C440.422 103.003 443.073 106.889 444.441 111.333C445.983 116.345 445.455 121.535 446.717 126.564C447.265 128.747 451.039 129.05 451.461 126.651L451.488 126.465L451.819 126.258L451.949 126.18C452.083 126.103 452.144 126.08 452.028 126.189L452.003 126.212L452.054 126.168C452.093 126.133 452.132 126.097 452.172 126.06L452.286 125.947C453.091 124.05 454.775 123.348 456.409 123.533L456.363 123.645L455.876 124.9L455.721 125.294C455.149 126.731 454.519 128.092 453.431 129.323C451.891 131.066 449.976 132.486 447.818 133.361C447.374 133.541 447.441 134.142 447.93 134.191C452.751 134.671 458.181 131.74 460.447 127.298C460.47 127.455 460.483 127.615 460.487 127.78C460.504 128.321 460.473 128.853 460.399 129.372C460.131 129.472 459.871 129.62 459.629 129.821C458.064 131.123 457.295 133.251 455.823 134.703C454.281 136.226 452.388 137.637 450.332 138.344C450.299 138.356 450.273 138.372 450.249 138.39C450.094 137.801 449.93 137.216 449.742 136.639C449.669 136.413 449.367 136.469 449.344 136.693C449.303 137.093 443.648 133.067 439.293 133.717C431.106 134.94 429.215 139.725 417.451 139.018C411.71 138.673 399.585 133.29 388.978 132.885C379.355 132.518 362.158 138.015 357.621 141.183C355.263 142.829 361.923 148.266 360.717 150.738C357.294 157.75 358.681 167.026 355.102 172.571L354.964 172.78C352.673 176.149 354.103 185.117 353.211 187.881C351.599 192.873 348.931 190.686 349.334 191.356C349.461 191.567 349.802 191.43 349.735 191.186C348.636 187.182 345.625 184.16 341.797 183.056C341.963 182.107 341.661 180.916 341.072 180.137L340.831 179.01L340.608 177.956C340.095 175.496 339.636 173.039 339.389 170.511C339.019 166.722 339.006 162.904 339.249 159.104C339.568 154.112 340.596 149.303 341.725 144.497L341.847 143.982L342.735 140.245C344.955 140.877 347.233 141.276 349.447 141.474C352.025 141.704 354.577 141.683 357.109 141.479C359.354 147.581 359.268 154.529 356.495 160.488C353.25 167.459 345.297 174.118 347.48 182.572C348.432 186.257 354.001 185.505 354.133 181.784L354.135 181.67C354.156 177.993 355.405 174.965 357.055 171.805L357.282 171.374L357.659 170.669C359.634 166.972 361.306 163.325 361.862 159.12C362.669 153.011 361.404 146.702 358.382 141.362C369.149 140.237 379.571 135.971 390.085 133.679L390.567 133.576L391.051 133.476C398.818 131.908 407.379 131.724 414.42 135.816C414.554 135.894 414.661 135.699 414.539 135.611C404.319 128.234 391.083 129.282 379.364 131.881L378.689 132.033L378.026 132.185C367.186 134.69 355.829 138.371 344.749 135.128C341.869 134.286 339.074 132.902 336.819 130.897L336.631 130.728C335.678 129.867 334.589 128.752 334.406 127.445C334.341 126.985 334.361 126.669 334.633 126.305C334.915 125.926 335.409 125.928 335.125 125.79C338.444 127.391 341.289 122.791 338.172 120.798L337.951 120.662C333.963 118.133 335.956 112.378 340.531 112.405L340.765 112.409C343.356 112.416 344.15 109.353 342.757 107.56L342.623 107.393C340.044 104.069 344.385 100.059 347.763 101.938L347.947 102.044C349.551 102.932 351.236 101.944 351.843 100.377C353.144 97.0141 352.478 93.5428 352.401 90.0623L352.397 89.8358L352.391 89.457L352.391 89.1579L352.393 88.9598C352.41 88.2265 352.505 87.4308 352.903 87.0373ZM450.371 138.868L450.403 138.876L450.472 138.879L450.536 139.556L450.455 139.212L450.371 138.868ZM339.648 139.318L339.57 139.159L339.822 139.261L339.701 139.432L339.648 139.318ZM410.347 119.968C410.078 119.892 409.885 120.31 410.152 120.432C416.781 123.467 421.81 128.311 425.735 134.381C426.107 134.955 426.668 135.124 427.314 135.024C427.631 134.975 427.809 134.821 427.979 134.609L428.021 134.556L428.15 134.381C428.43 133.997 428.393 133.357 428.15 132.968C424.165 126.6 417.498 122.012 410.347 119.968ZM426.129 117.98C425.837 117.981 425.682 118.428 425.904 118.618C427.808 120.24 429.667 122.037 431.019 124.159C431.676 125.189 432.225 126.287 432.622 127.443C433.054 128.705 433.195 130.013 433.813 131.207C434.849 133.206 437.625 132.089 437.764 130.135C437.975 127.188 435.515 123.873 433.566 121.865C431.588 119.827 429.162 118.421 426.363 118.01L426.167 117.983L426.129 117.98ZM353.049 115.673C352.237 115.468 351.572 116.506 352.211 117.115C355.721 120.461 360.464 122.013 365.187 122.691L365.428 122.725C369.85 123.332 376.281 123.675 379.615 120.076C380.321 119.314 380.1 117.853 378.967 117.617C377.415 117.294 375.822 117.413 374.247 117.608L373.799 117.665L372.682 117.813C370.477 118.101 368.264 118.277 366.038 118.211C361.581 118.08 357.336 116.759 353.049 115.673ZM430.284 105.025C429.818 104.844 429.324 105.487 429.617 105.895C430.962 107.761 432.573 109.393 433.951 111.231C435.332 113.075 436.486 115.012 438.121 116.652C438.999 117.533 440.493 116.637 440.183 115.452C439.009 110.963 434.545 106.673 430.284 105.025ZM360.313 107.051C359.823 106.877 359.479 107.557 359.821 107.899C364.346 112.421 372.488 114.79 378.482 112.178C379.832 111.59 379.005 109.7 377.792 109.625C374.791 109.441 371.78 109.787 368.795 109.331C365.881 108.885 363.087 108.034 360.313 107.051ZM367.921 100.989C367.273 100.719 367.002 101.687 367.478 102.04C370.039 103.934 373.182 104.756 376.315 104.074C377.335 103.852 377.115 102.205 376.068 102.247C373.234 102.36 370.562 102.09 367.921 100.989ZM388.928 91.1551C392.808 90.9844 396.739 90.9392 400.674 91.0738L398.928 91.3059L397.764 91.4577C393.299 92.0341 388.828 92.5216 384.321 92.5018C381.275 92.4886 378.233 92.2428 375.258 91.6415C379.814 91.9168 384.558 91.4145 388.928 91.1551Z" fill="#ECDCBF"/>
<path fill-rule="evenodd" clip-rule="evenodd" d="M342.851 118.323C342.846 118.345 342.854 118.362 342.859 118.386C342.86 118.379 342.861 118.375 342.863 118.367C342.858 118.349 342.855 118.337 342.851 118.323Z" fill="#4F66AF"/>
<path fill-rule="evenodd" clip-rule="evenodd" d="M342.85 118.552C342.83 118.531 342.802 118.516 342.774 118.495C342.773 118.495 342.773 118.496 342.772 118.497C342.799 118.514 342.824 118.534 342.85 118.552Z" fill="#4F66AF"/>
<path fill-rule="evenodd" clip-rule="evenodd" d="M459.63 129.863C461.403 128.388 464.195 129.745 463.594 132.172C462.941 134.815 460.111 136.62 457.775 137.707C455.37 138.824 453.028 139.039 450.404 138.917L450.372 138.91C451.1 141.833 451.513 144.871 452.07 147.812C452.778 151.543 453.473 155.275 454.158 159.01C454.821 162.619 455.659 166.233 456.168 169.86C456.682 173.522 457.175 177.186 457.68 180.849C458.522 186.967 459.202 193.113 459.918 199.248L460.26 202.152C460.978 208.299 461.556 214.453 460.195 220.57C458.92 226.302 456.048 231.65 452.718 236.436C449.455 241.121 445.811 245.627 441.811 249.702C434.094 257.563 424.579 263.859 413.422 265.027C408.618 265.53 403.487 264.97 398.971 263.222L398.671 263.106C394.099 261.299 388.5 258.205 387.31 253.129C386.579 250.015 389.785 247.584 392.596 249.062C393.899 249.747 394.878 250.529 395.947 251.51L396.137 251.685C397.01 252.497 397.347 252.747 398.355 253.382C400.423 254.684 401.972 255.3 404.321 255.892C408.651 256.982 413.324 256.809 417.72 255.52C427.053 252.783 434.293 245.641 440.495 238.479C443.863 234.59 447.06 230.511 449.525 225.978C452.112 221.222 453.306 216.23 453.234 210.818C453.153 204.713 452.31 198.584 451.757 192.507C451.193 186.313 450.672 180.12 450.213 173.917C449.783 168.099 449.741 162.255 449.591 156.42L449.561 155.325C449.473 152.228 449.412 149.129 449.342 146.03C449.272 142.94 449.027 139.811 449.345 136.735C449.368 136.511 449.67 136.454 449.743 136.68C449.931 137.257 450.095 137.842 450.25 138.431C450.274 138.413 450.3 138.397 450.333 138.386C452.389 137.679 454.281 136.267 455.824 134.745C457.296 133.292 458.065 131.164 459.63 129.863ZM347.151 86.5757C348.442 81.2671 354.254 80.0813 358.551 82.6376C360.618 83.867 362.273 85.6403 364.204 87.0489C366.124 88.45 368.245 89.5753 370.483 90.37C374.931 91.9488 379.622 92.5226 384.323 92.5429C395.762 92.5932 406.968 89.3757 418.425 89.7342C427.29 90.012 436.699 92.6343 443.13 99.0484C446.593 102.503 448.825 106.945 450.023 111.661C450.582 113.865 451 116.123 451.329 118.375L451.409 118.938C451.593 120.254 451.889 121.648 451.916 122.978C451.941 124.173 451.639 125.423 451.475 126.605C451.13 129.098 447.273 128.814 446.719 126.605C445.456 121.577 445.984 116.386 444.442 111.375C443.074 106.931 440.423 103.045 436.582 100.387C420.378 89.1756 399.598 98.5644 381.744 97.692C377.38 97.4787 372.952 96.8039 368.836 95.3003C366.714 94.5243 364.624 93.5788 362.7 92.389C360.937 91.2998 359.409 89.9312 357.777 88.6719L357.057 88.124C355.938 87.2815 354.034 85.9643 352.904 87.0789C352.413 87.5639 352.384 88.6607 352.393 89.4986L352.398 89.8769C352.449 93.4331 353.173 96.9826 351.844 100.418C351.237 101.985 349.552 102.973 347.948 102.086L347.866 102.038C344.475 100.019 340.019 104.076 342.624 107.434L342.705 107.536C344.17 109.319 343.389 112.458 340.766 112.45L340.671 112.448C335.997 112.303 333.924 118.149 337.952 120.703L338.076 120.779C341.347 122.739 338.479 127.449 335.126 125.832C335.41 125.969 334.916 125.967 334.634 126.346C334.362 126.711 334.342 127.026 334.407 127.486C334.602 128.881 335.828 130.056 336.821 130.939C339.075 132.943 341.87 134.327 344.751 135.17C356.287 138.545 368.124 134.417 379.365 131.923C391.084 129.323 404.32 128.276 414.54 135.653C414.662 135.74 414.556 135.935 414.421 135.858C407.086 131.594 398.103 131.973 390.086 133.72C379.572 136.013 369.15 140.279 358.383 141.403C361.405 146.744 362.671 153.052 361.863 159.161C361.307 163.366 359.635 167.014 357.66 170.71L357.284 171.415C355.522 174.733 354.158 177.867 354.136 181.711C354.115 185.53 348.442 186.336 347.481 182.613C345.298 174.159 353.251 167.501 356.496 160.529C359.269 154.57 359.355 147.622 357.11 141.521C354.578 141.724 352.026 141.746 349.448 141.516C347.234 141.318 344.956 140.918 342.736 140.286L341.848 144.023C340.671 149.001 339.581 153.976 339.25 159.146C339.007 162.945 339.02 166.763 339.39 170.553C339.71 173.826 340.386 176.983 341.073 180.178C341.663 180.957 341.964 182.149 341.798 183.098C345.626 184.201 348.637 187.224 349.736 191.227C349.803 191.471 349.463 191.609 349.335 191.397C346.725 187.063 340.005 185.468 335.753 188.332C331.694 191.065 330.092 196.584 332.391 200.953C333.599 203.251 335.391 204.865 337.702 205.977L338.167 206.195C339.378 206.769 340.489 207.394 341.268 208.546C342.279 210.04 342.313 211.619 342.217 213.327L342.176 214.019C342.112 215.163 342.098 216.341 342.438 217.442L342.516 217.687C342.606 217.962 342.7 218.203 342.864 218.466C342.913 218.544 343.373 218.996 343.523 219.159L343.712 219.216L343.923 219.225C344.157 219.228 344.465 219.127 344.364 219.197L344.392 219.181C344.481 219.126 344.562 219.067 344.631 219.015L344.762 218.913C345.068 218.47 345.451 218.104 345.922 217.826L346.371 217.625C347.539 216.391 349.539 217.04 350.376 218.269C350.978 219.152 351.302 220.051 351.329 220.937C351.423 220.787 351.632 220.704 351.765 220.873L352.559 221.885C355.594 225.768 358.578 229.674 362.028 233.213C363.929 235.164 365.973 236.996 368.11 238.684C369.934 240.125 373.395 241.512 373.448 244.136C373.464 244.989 372.86 245.592 372.121 245.881C369.714 246.822 366.739 243.621 365.001 242.064L364.858 241.938C362.73 240.072 360.789 238.025 358.996 235.835C355.516 231.582 352.605 226.686 351.323 221.301C351.263 222.241 350.859 223.162 350.075 224.031C349.031 225.187 347.602 225.998 346.076 226.332C342.617 227.089 339.241 225.843 337.183 222.959C335.444 220.521 334.932 217.301 335.156 214.356L335.184 214.002C335.215 213.53 335.256 212.663 335.378 212.294L334.289 211.696C332.954 210.984 331.717 210.053 330.606 209.028C326.143 204.91 323.904 198.217 325.944 192.361C327.22 188.697 329.902 185.509 333.336 183.853C332.763 182.525 332.571 180.948 332.354 179.553L332.317 179.323C331.95 177.034 331.643 174.717 331.526 172.401C331.307 168.076 331.573 163.71 332.252 159.435C333.355 152.491 335.638 145.128 339.823 139.303C336.63 138.034 333.692 136.196 331.423 133.645C329.053 130.979 327.541 127.163 329.375 123.777C329.841 122.914 330.45 122.189 331.15 121.613C329.937 119.32 329.544 116.61 330.293 114.02C331.187 110.924 333.616 108.509 336.551 107.381C335.838 104.447 336.42 101.291 338.598 98.8463C340.757 96.421 344.111 95.5374 347.215 96.0919C347.383 92.9715 346.402 89.653 347.151 86.5757ZM338.445 196.129C341.291 194.736 344.664 194.957 347.506 196.278L347.699 196.369C350.803 197.876 354.913 201.395 353.926 205.138C353.349 207.327 350.919 208.074 349.035 207.13C347.461 206.34 347.102 204.928 346.312 203.51C345.754 202.508 345.064 201.724 344.253 200.917C342.545 199.219 340.625 197.957 338.445 196.947C338.131 196.801 338.141 196.278 338.445 196.129ZM410.152 120.474C409.886 120.352 410.079 119.933 410.348 120.01C417.499 122.054 424.166 126.641 428.151 133.01C428.394 133.398 428.431 134.038 428.151 134.422L428.021 134.597C427.839 134.835 427.658 135.012 427.315 135.065C426.669 135.166 426.108 134.997 425.736 134.422C421.811 128.353 416.782 123.509 410.152 120.474ZM458.026 121.676C458.632 120.648 460.238 120.855 460.558 122.007L460.604 122.107C460.777 122.499 460.698 122.58 460.376 122.358C461.173 123.015 461.534 123.994 461.29 125.046C459.974 130.731 453.54 134.791 447.931 134.233C447.442 134.184 447.375 133.582 447.819 133.402C449.977 132.527 451.892 131.108 453.432 129.365C454.929 127.671 455.559 125.733 456.364 123.687C456.666 122.919 457.136 122.366 457.798 122.064C457.886 121.943 457.962 121.814 458.026 121.676ZM426.13 118.022L426.168 118.025C429.05 118.397 431.543 119.821 433.567 121.906C435.516 123.915 437.976 127.229 437.765 130.177C437.626 132.131 434.85 133.248 433.814 131.248C433.196 130.055 433.055 128.747 432.623 127.485C432.226 126.329 431.677 125.23 431.02 124.2C429.668 122.079 427.809 120.281 425.905 118.659C425.683 118.469 425.838 118.023 426.13 118.022ZM352.212 117.156C351.573 116.547 352.238 115.509 353.05 115.715C357.337 116.801 361.582 118.122 366.039 118.253C368.265 118.319 370.478 118.143 372.683 117.854L373.799 117.706C375.519 117.481 377.268 117.305 378.968 117.658C380.101 117.894 380.322 119.355 379.616 120.117C376.282 123.717 369.85 123.373 365.428 122.766C360.626 122.107 355.781 120.559 352.212 117.156ZM429.618 105.936C429.325 105.528 429.819 104.886 430.286 105.066C434.546 106.714 439.01 111.004 440.184 115.493C440.494 116.679 439 117.574 438.122 116.694C436.488 115.053 435.334 113.116 433.952 111.272C432.574 109.435 430.963 107.802 429.618 105.936ZM359.822 107.941C359.479 107.599 359.824 106.918 360.314 107.093C363.088 108.075 365.882 108.926 368.796 109.372C371.78 109.829 374.792 109.482 377.792 109.667C379.006 109.741 379.833 111.631 378.483 112.219C372.489 114.831 364.347 112.463 359.822 107.941ZM367.479 102.081C367.003 101.729 367.274 100.761 367.922 101.031C370.563 102.131 373.235 102.402 376.069 102.289C377.116 102.247 377.336 103.893 376.316 104.115C373.183 104.797 370.04 103.976 367.479 102.081Z" fill="black"/>
<path fill-rule="evenodd" clip-rule="evenodd" d="M415.734 229.937C413.306 228.947 411.14 227.298 409.556 225.19C409.005 224.457 408.863 223.683 408.978 222.975C409.108 222.179 409.579 221.458 410.222 220.974C410.867 220.489 411.674 220.25 412.454 220.372C413.131 220.478 413.806 220.849 414.34 221.617L414.451 221.771C415.393 223.043 416.62 224.087 418.018 224.76C419.366 225.408 420.873 225.711 422.432 225.535C425.402 225.2 427.45 223.595 429.626 221.417C429.895 221.142 430.165 220.858 430.437 220.57C430.608 220.308 430.846 220.14 431.11 220.052C431.402 219.954 431.734 219.96 432.037 220.066C432.33 220.168 432.592 220.361 432.768 220.618C432.934 220.863 433.029 221.165 432.998 221.513C432.799 223.771 431.617 225.786 429.939 227.368C428.074 229.126 425.602 230.341 423.275 230.767C420.712 231.237 418.099 230.901 415.734 229.937ZM424.485 195.105C427.212 196.761 431.368 200.622 428.434 204.727C424.98 208.346 420.007 204.196 417.557 202.319C415.285 200.865 412.732 204.606 414.84 206.304C432.547 219.397 439.733 195.538 425.864 193.158C424.337 192.896 423.77 194.593 424.485 195.105ZM392.754 179.875C393.055 176.139 398.752 175.291 399.319 178.988C399.827 182.299 399.229 185.341 397.735 188.323C396.309 191.171 392.722 189.842 392.451 187.248C392.087 183.772 392.567 182.198 392.754 179.875ZM436.12 178.221C436.914 177.182 438.06 176.473 439.435 176.874C443.727 178.126 442.462 184.213 440.954 187.175C440.135 188.785 437.487 189.192 436.291 187.776C434.34 185.466 433.406 180.852 435.886 178.577C435.953 178.459 436.028 178.341 436.12 178.221ZM397.675 163.528L398.353 163.41C400.451 163.047 403.059 162.699 404.543 164.383C405.33 165.276 405.601 166.936 404.543 167.791C402.683 169.296 400.625 168.713 398.395 168.84C396.557 168.945 394.791 169.249 393.021 169.755C389.137 170.863 385.973 172.887 382.656 175.109C382.221 175.4 381.777 174.844 381.985 174.438C383.899 170.693 387.609 167.616 391.326 165.74C393.31 164.739 395.481 163.909 397.675 163.528ZM432.206 161.85L432.725 161.956C438.373 163.135 445.711 165.491 448.386 171.031C448.488 171.815 448.38 171.982 448.293 172.092L448.263 172.129C448.191 172.223 448.133 172.352 447.794 172.458C447.699 172.436 447.604 172.412 447.508 172.387C446.282 172.066 445.312 171.624 444.373 171.165L443.355 170.664C442.173 170.086 440.981 169.528 439.718 169.117C437.023 168.239 434.251 167.62 431.436 167.29C430.826 167.219 430.238 167.013 429.774 166.661C429.335 166.326 428.999 165.862 428.845 165.247C428.647 164.45 428.704 163.847 429.132 163.128C429.454 162.588 429.914 162.214 430.443 161.999C430.982 161.78 431.596 161.728 432.206 161.85Z" fill="black"/>
<path fill-rule="evenodd" clip-rule="evenodd" d="M466.425 167.641C466.128 167.591 465.83 167.545 465.533 167.501C465.301 167.369 465.028 167.268 464.711 167.207C463.987 167.023 463.268 166.9 462.55 166.833C452.244 164.517 428.404 167.805 427.42 176.588C424.138 177.683 421.298 176.703 417.495 176.8C414.6 164.714 364.545 166.42 362.138 173.706C362.129 173.704 362.12 173.702 362.111 173.699C359.798 172.984 356.388 173.156 353.74 173.043C348.087 172.925 342.428 173.428 336.897 174.619C326.54 176.263 312.405 178.187 319.608 191.104C319.61 191.106 319.611 191.109 319.613 191.111L319.614 191.11C320.855 192.381 322.962 191.357 323.04 189.637C320.618 183.518 326.089 182.783 330.297 181.024C340.769 177.267 351.43 176.746 362.261 177.909C363.076 178.866 364.312 179.702 365.619 180.139C372.86 181.34 369.044 186.704 373.621 187.485C372.78 206.186 395.514 216.394 408.686 204.1C413.945 198.965 415.198 191.357 416.418 184.5C417.063 184.356 417.472 184.004 417.712 183.538C419.263 181.991 420.237 180.564 423.303 180.139C426.369 179.715 428.729 180.566 429.048 180.827C429.129 180.989 429.215 181.152 429.316 181.314C429.456 181.556 429.646 181.749 429.863 181.901C426.835 200.523 441.311 212.301 455.924 202.642C462.274 196.676 463.615 187.544 463.88 179.392C464.741 178.873 465.286 177.867 464.988 176.603C464.577 174.861 465.54 173.352 467.074 172.595C469.067 171.611 468.714 168.019 466.425 167.641ZM403.634 176.475C401.821 176.077 401.046 178.87 402.866 179.269C404.154 179.552 405.246 180.201 405.984 181.301L406.062 181.42C407.052 182.994 409.555 181.541 408.559 179.958C407.437 178.176 405.693 176.927 403.634 176.475ZM456.76 174.743C456.12 174.293 455.153 174.628 454.781 175.263C454.373 175.963 454.64 176.743 455.239 177.201L455.3 177.245C455.85 177.632 456.385 178.325 456.452 179.035L456.458 179.124C456.53 180.983 459.422 180.992 459.349 179.124C459.279 177.297 458.22 175.77 456.76 174.743Z" fill="black"/>
</svg>
