<?xml version="1.0" encoding="iso-8859-1"?>
<!-- Generator: Adobe Illustrator 19.0.0, SVG Export Plug-In . SVG Version: 6.00 Build 0)  -->
<svg version="1.1" id="Capa_1" xmlns="http://www.w3.org/2000/svg" xmlns:xlink="http://www.w3.org/1999/xlink" x="0px" y="0px"
	 viewBox="0 0 511.999 511.999" style="enable-background:new 0 0 511.999 511.999;" xml:space="preserve">
<path style="fill:#512CB7;" d="M383.175,95.951l-8.385-4.84l0,0L247.959,17.889c-0.02-0.013-0.039-0.027-0.06-0.039L224.054,4.088
	c-12.189-6.587-28.765-5.436-46.966,5.072c-37.201,21.477-67.637,74.196-67.637,117.152v294.569l22.546,13.017l22.546-13.017
	v-77.797l90.183,52.067v103.831l22.546,13.017l22.546-13.017v-77.797l67.637-39.357v52.069l22.546,13.017l22.546-13.017V139.328
	C402.545,118.147,395.138,103.148,383.175,95.951z"/>
<polygon style="fill:#442B9E;" points="199.633,100.278 199.633,22.177 312.363,87.261 313.572,166.06 "/>
<polyline style="fill:#7364FF;" points="131.996,139.328 199.633,100.278 313.572,166.06 244.725,204.413 "/>
<path style="fill:#6049EA;" d="M385.158,97.256c0.889,0.396,1.763,0.821,2.61,1.293l-7.449-4.3l0,0L224.054,4.088
	c-12.189-6.587-28.765-5.436-46.966,5.072c-37.201,21.478-67.637,74.196-67.637,117.152v294.569l22.546,13.017V329.762
	l112.73,65.388v103.831l22.546,13.017l22.545-13.017v-77.797l67.637-39.356v52.069l22.546,13.017l22.546-13.017V139.328
	C402.545,119.346,395.949,104.874,385.158,97.256z M244.726,204.413l-112.73-65.085c0-28.012,12.949-60.171,32.271-85.116
	l112.828,64.954C257.717,144.129,244.726,176.352,244.726,204.413z"/>
<g style="enable-background:new    ;">
	<polygon style="fill:#FFFFFF;" points="229.293,263.856 183.274,282.128 143.886,214.547 	"/>
</g>
<polygon style="fill:#FFFFFF;" points="182.378,291.261 143.886,225.218 143.886,277.839 229.293,327.149 229.293,272.634 "/>
<path style="fill:#512CB7;" d="M334.908,100.278c-37.201,21.477-67.637,74.196-67.637,117.152v294.57l22.545-13.017v-77.799
	l90.183-52.37v78.101l22.546-13.017v-294.57C402.545,96.373,372.109,78.8,334.908,100.278z"/>
<g>
</g>
<g>
</g>
<g>
</g>
<g>
</g>
<g>
</g>
<g>
</g>
<g>
</g>
<g>
</g>
<g>
</g>
<g>
</g>
<g>
</g>
<g>
</g>
<g>
</g>
<g>
</g>
<g>
</g>
</svg>
