<svg width="40" height="40" viewBox="0 0 40 40" fill="none" xmlns="http://www.w3.org/2000/svg">
<g clip-path="url(#clip0)">
<path d="M39.1993 0.781311C39.1993 0.781311 39.0485 4.98677 37.3009 9.93129L30.0493 2.67974C34.9938 0.932092 39.1993 0.781311 39.1993 0.781311Z" fill="#FF5249"/>
<path d="M30.0493 2.67975L37.3009 9.9313C36.1649 13.1485 34.3516 16.6782 31.4657 19.5641C28.8063 22.2235 25.6069 24.3524 22.2618 25.8281L14.1525 17.7188C15.14 15.4805 16.5181 13.0922 18.3392 10.8305C18.9767 10.0391 19.6681 9.26333 20.4165 8.51489C23.3025 5.62896 26.8321 3.81568 30.0493 2.67975Z" fill="white"/>
<path d="M30.3602 9.62037C31.5805 10.8407 31.5805 12.8196 30.3602 14.0399C29.1399 15.2602 27.1618 15.2602 25.9407 14.0399C24.7204 12.8188 24.7204 10.8407 25.9407 9.62037C27.161 8.40006 29.1399 8.40006 30.3602 9.62037Z" fill="#7BD8E8"/>
<path d="M29.2556 21.7734C33.2822 27.8133 25.7447 31.7172 21.522 31.7172C23.7314 29.5078 23.0861 26.6523 23.0861 26.6523L22.2619 25.8281C24.5002 24.8406 26.8884 23.4625 29.1501 21.6414L29.2556 21.7734Z" fill="#FF5249"/>
<path d="M13.2447 23.4406L13.1181 23.314C12.7447 22.9398 12.5611 22.3976 12.6923 21.8851C13.0181 20.6164 13.4994 19.2008 14.1525 17.7188L22.2618 25.8281C20.7798 26.4812 19.3642 26.9625 18.0954 27.2883C17.5829 27.4195 17.0408 27.2359 16.6665 26.8625L16.54 26.7359L13.2447 23.4406Z" fill="#FF5249"/>
<path d="M18.2072 10.725L18.3392 10.8305C16.5181 13.0922 15.14 15.4805 14.1525 17.7188L13.3283 16.8946C13.3283 16.8946 10.4728 16.2492 8.26343 18.4586C8.26343 14.236 12.1673 6.69849 18.2072 10.725Z" fill="#FF5249"/>
<path d="M13.2447 23.4407L16.54 26.736C16.3033 27.6727 15.7415 28.6586 14.8923 29.5078C13.0619 31.3383 8.26343 31.7172 8.26343 31.7172C8.26343 31.7172 8.64233 26.9188 10.4728 25.0883C11.322 24.2391 12.308 23.6774 13.2447 23.4407Z" fill="#FFDD78"/>
<path d="M20.9891 20.1164C21.2938 19.811 21.2938 19.3164 20.9891 19.0118C20.6837 18.7063 20.1891 18.7063 19.8837 19.0118C19.579 19.3164 19.579 19.811 19.8837 20.1164C20.1891 20.4211 20.6837 20.4211 20.9891 20.1164Z" fill="black"/>
<path d="M30.9322 14.5923C32.4586 13.0659 32.4589 10.5946 30.9322 9.06793C29.4056 7.54144 26.9344 7.54137 25.4077 9.06793C23.8852 10.5905 23.8851 13.0686 25.408 14.5924C26.9311 16.1146 29.4092 16.1153 30.9322 14.5923ZM26.5127 10.1728C27.4285 9.25691 28.9113 9.25675 29.8273 10.1728C30.7432 11.0885 30.7433 12.5714 29.8273 13.4874C28.9138 14.401 27.4268 14.401 26.5128 13.4875C25.5991 12.5733 25.5991 11.0863 26.5127 10.1728Z" fill="black"/>
<path d="M7.9839 19.1804C8.08054 19.2204 8.18211 19.2399 8.28273 19.2399C8.48609 19.2399 8.68586 19.1604 8.83531 19.0111C10.4043 17.4421 12.3395 17.5402 12.9717 17.6233L13.2453 17.8969C12.7069 19.1782 12.2731 20.4522 11.955 21.6914C11.8401 22.1398 11.8789 22.6143 12.0496 23.0484C11.2974 23.395 10.5717 23.904 9.93984 24.5359C7.92883 26.547 7.52047 31.4481 7.50406 31.6557C7.48609 31.8836 7.56875 32.108 7.73039 32.2696C7.8775 32.4167 8.07648 32.4985 8.28273 32.4985C8.3032 32.4985 8.32375 32.4977 8.34429 32.496C8.55195 32.4797 13.4532 32.0713 15.4642 30.0603C16.0958 29.4287 16.6047 28.7031 16.9514 27.951C17.4109 28.1317 17.8839 28.154 18.3092 28.045C19.5478 27.727 20.8217 27.2934 22.1031 26.7549L22.3767 27.0285C22.4597 27.6607 22.5579 29.596 20.989 31.1648C20.7656 31.3882 20.6987 31.7242 20.8197 32.0161C20.9405 32.3081 21.2254 32.4984 21.5414 32.4984C24.6336 32.4984 28.9566 30.6569 30.5488 27.6818C31.2403 26.3899 31.711 24.346 30.2096 21.7953C30.8461 21.2573 31.4592 20.6948 32.0375 20.1165C34.6171 17.5368 36.6423 14.1976 38.0568 10.1916C39.824 5.19179 39.993 0.985865 39.9993 0.809303C40.0071 0.592506 39.9244 0.382272 39.771 0.228835C39.6176 0.0754762 39.4082 -0.00764858 39.1906 0.00055453C39.0139 0.00688264 34.8081 0.175945 29.8085 1.94305C25.8022 3.35758 22.4629 5.38281 19.8833 7.96249C19.3053 8.54054 18.7428 9.1535 18.2046 9.7903C15.654 8.2889 13.6101 8.75968 12.318 9.45116C9.34288 11.0433 7.5014 15.3665 7.5014 18.4586C7.50164 18.7746 7.69203 19.0595 7.9839 19.1804ZM14.3594 28.9554C13.2851 30.0296 10.7652 30.5962 9.17249 30.8275C9.4039 29.2347 9.97054 26.7149 11.0447 25.6407C11.6462 25.0392 12.3437 24.5831 13.0448 24.3262L15.6739 26.9553C15.417 27.6564 14.961 28.3539 14.3594 28.9554ZM17.9211 26.5314C17.695 26.5893 17.4331 26.5043 17.2384 26.3099C13.4462 22.5178 18.3142 27.3858 13.6906 22.7621C13.4958 22.5669 13.4108 22.3051 13.4685 22.0794C13.7187 21.1049 14.046 20.105 14.444 19.0956L20.9045 25.5561C19.8949 25.9542 18.8952 26.2814 17.9211 26.5314ZM29.1714 26.9446C28.1478 28.857 25.5706 30.2667 23.222 30.7519C23.9708 29.3428 24.1359 27.5489 23.8623 26.4612C23.7988 26.2085 23.634 26.0815 23.6247 26.0666C25.5179 25.1496 27.3108 24.0496 28.9752 22.7842C29.7882 24.2696 29.8552 25.6667 29.1714 26.9446ZM36.9774 8.48335L31.5168 3.02274C34.4918 2.09868 37.08 1.75266 38.3719 1.62829C38.2474 2.92039 37.9013 5.50859 36.9774 8.48335ZM20.9885 9.06733C23.3029 6.75281 26.29 4.91078 29.869 3.58484L36.4153 10.1311C35.0895 13.7101 33.2474 16.6971 30.9328 19.0117C30.2288 19.7156 29.4707 20.3957 28.6796 21.0329C26.7779 22.5642 24.6848 23.8612 22.4517 24.8937L15.1064 17.5486C16.1389 15.3153 17.4359 13.2222 18.967 11.3207C19.6048 10.529 20.2848 9.77092 20.9885 9.06733ZM13.0555 10.8287C14.3336 10.1448 15.7305 10.2119 17.2158 11.0249C15.9505 12.6891 14.8504 14.4821 13.9334 16.3754C13.9218 16.3683 13.7812 16.1915 13.5199 16.1325C13.4125 16.1083 11.3454 15.6636 9.24812 16.7783C9.73343 14.4296 11.143 11.8523 13.0555 10.8287Z" fill="black"/>
<path d="M16.5697 35.5844L18.7791 33.3742C19.0841 33.0691 19.084 32.5744 18.779 32.2694C18.4737 31.9643 17.979 31.9645 17.674 32.2695L15.4647 34.4797C15.1597 34.7848 15.1597 35.2795 15.4648 35.5845C15.7701 35.8895 16.2647 35.8895 16.5697 35.5844Z" fill="black"/>
<path d="M5.52036 24.5353L7.73052 22.326C8.03567 22.021 8.03575 21.5263 7.73075 21.2211C7.42575 20.916 6.93114 20.916 6.62591 21.221L4.41575 23.4303C4.1106 23.7353 4.11052 24.23 4.41552 24.5352C4.72044 24.8402 5.21505 24.8405 5.52036 24.5353Z" fill="black"/>
<path d="M12.15 33.3749L6.85784 38.6663C6.55269 38.9713 6.55269 39.466 6.85777 39.7711C7.16269 40.0762 7.65745 40.0763 7.96261 39.7712L13.2548 34.4798C13.5599 34.1747 13.5599 33.68 13.2549 33.3749C12.9499 33.0699 12.4552 33.0699 12.15 33.3749Z" fill="black"/>
<path d="M5.90008 33.3749L0.607905 38.6663C0.302749 38.9713 0.302749 39.466 0.607827 39.7711C0.912748 40.0762 1.40751 40.0763 1.71267 39.7712L7.00485 34.4798C7.31 34.1747 7.31 33.68 7.00492 33.3749C6.69993 33.0699 6.20516 33.0699 5.90008 33.3749Z" fill="black"/>
<path d="M1.33378 33.1422L6.62518 27.85C6.93025 27.5449 6.93025 27.0503 6.6251 26.7451C6.3201 26.4401 5.82533 26.4401 5.52026 26.7452L0.228859 32.0373C-0.0762181 32.3425 -0.0762181 32.8371 0.228938 33.1423C0.534015 33.4473 1.0287 33.4473 1.33378 33.1422Z" fill="black"/>
<path d="M23.1987 17.9064L24.3033 16.8017C24.6084 16.4966 24.6084 16.0019 24.3033 15.6968C23.9982 15.3917 23.5037 15.3917 23.1984 15.6968L22.0937 16.8015C21.7887 17.1065 21.7887 17.6012 22.0937 17.9064C22.3989 18.2114 22.8935 18.2114 23.1987 17.9064Z" fill="black"/>
</g>
<defs>
<clipPath id="clip0">
<rect width="40" height="40" fill="white"/>
</clipPath>
</defs>
</svg>
