<?xml version="1.0" encoding="iso-8859-1"?>
<!-- Generator: Adobe Illustrator 19.0.0, SVG Export Plug-In . SVG Version: 6.00 Build 0)  -->
<svg version="1.1" id="Layer_1" xmlns="http://www.w3.org/2000/svg" xmlns:xlink="http://www.w3.org/1999/xlink" x="0px" y="0px"
	 viewBox="0 0 512 512" style="enable-background:new 0 0 512 512;" xml:space="preserve">
<path style="fill:#FF9C4A;" d="M65.102,345.107l-16.058,2.124c-3.842,0.508-7.368-2.195-7.876-6.037l-3.042-23.042l29.969-3.964
	l3.042,23.045C71.644,341.074,68.942,344.599,65.102,345.107z"/>
<g>
	<path style="fill:#41B6D6;" d="M362.193,311.567c-1.906,0.252-3.861,0.155-5.771-0.311L238.42,282.488
		c-8.423-2.053-13.587-10.551-11.536-18.981c2.051-8.431,10.541-13.601,18.962-11.547l111.18,27.105l83.679-57.623
		c5.449-3.751,12.66-3.683,18.035,0.171l29.506,21.155c7.047,5.053,8.668,14.867,3.621,21.921
		c-5.049,7.053-14.852,8.676-21.899,3.624l-20.549-14.733l-80.387,55.357C366.97,310.356,364.622,311.246,362.193,311.567z"/>
	<path style="fill:#41B6D6;" d="M98.507,454.865c-2.962,0.392-6.068-0.058-8.952-1.473c-7.783-3.82-10.998-13.232-7.181-21.022
		l30.817-62.911l-11.361-83.554c-1.169-8.597,4.846-16.516,13.434-17.686c0.02-0.003,0.042-0.005,0.062-0.008
		c8.566-1.133,16.44,4.879,17.607,13.456l12.006,88.295c0.42,3.09-0.088,6.236-1.46,9.036l-32.921,67.206
		C108.155,451.107,103.539,454.2,98.507,454.865z"/>
</g>
<path style="fill:#7AC9E5;" d="M265.092,396.689c-4.916,0.65-10.06-1.036-13.658-4.98l-53.12-58.224l-86.815-35.135
	c-6.606-2.673-10.585-9.466-9.687-16.542c0.896-7.075,6.442-12.659,13.506-13.597l122.888-16.314l103.011-40.063l43.986-104.148
	c3.109-7.365,11.251-11.215,18.909-8.947l29.983,8.881c8.312,2.462,13.057,11.202,10.597,19.522
	c-2.46,8.319-11.189,13.071-19.503,10.608l-16.535-4.897l-41.11,97.338c-1.652,3.912-4.816,6.988-8.772,8.527L247.819,281.87
	c-1.166,0.453-2.381,0.765-3.621,0.93l-65.8,8.735l34.984,14.159c2.174,0.88,4.125,2.237,5.706,3.97l55.523,60.858
	c5.846,6.407,5.395,16.345-1.005,22.195C271.145,394.965,268.163,396.282,265.092,396.689z"/>
<path style="fill:#FFD066;" d="M82.37,296.991c0,0.49-0.01,0.97-0.04,1.46c-0.17,3.46-0.93,6.96-2.35,10.35
	c-6.19,14.77-22.58,22.13-37.52,17.32c-0.85-0.27-1.69-0.58-2.52-0.93c-15.58-6.54-22.91-24.48-16.37-40.08
	c3.6-8.6,10.68-14.69,18.91-17.32c6.69-2.14,14.14-2,21.13,0.93c10.27,4.31,16.95,13.58,18.44,23.86c0.05,0.33,0.09,0.67,0.13,1
	c0.01,0.03,0.01,0.06,0.01,0.09c0.04,0.33,0.07,0.66,0.09,0.98c0.01,0.03,0.01,0.07,0.01,0.11c0.02,0.23,0.03,0.45,0.04,0.68
	c0.01,0.18,0.02,0.36,0.02,0.55C82.36,296.32,82.37,296.65,82.37,296.991z"/>
<path style="fill:#F24E5E;" d="M226.112,253.555L109.279,269.01c-16.465,2.178-31.577-9.406-33.751-25.872l-0.004-0.029
	c-2.173-16.459,9.406-31.565,25.865-33.742l116.833-15.455c16.465-2.178,31.577,9.406,33.751,25.872l0.004,0.029
	C254.15,236.272,242.571,251.378,226.112,253.555z"/>
<path style="fill:#DD314B;" d="M251.977,219.813l-0.004-0.029c-2.174-16.466-17.286-28.05-33.751-25.872l-6.474,0.856
	c10.653,3.849,18.845,13.354,20.43,25.358l0.342,2.592c1.815,13.743-5.581,26.573-17.417,32.292l11.008-1.456
	C242.571,251.378,254.15,236.272,251.977,219.813z"/>
<polygon style="fill:#FFD066;" points="182.263,259.356 138.984,265.081 131.11,205.436 174.389,199.711 "/>
<path d="M78.575,336.249l-1.43-10.837c4.185-3.732,7.52-8.382,9.752-13.708c8.123-19.381-1.021-41.764-20.385-49.895
	c-9.384-3.94-19.739-3.988-29.156-0.133c-9.417,3.854-16.771,11.147-20.706,20.537c-7.393,17.638-0.479,37.76,15.421,47.366
	l1.664,12.596c0.51,3.846,2.482,7.263,5.556,9.62c2.56,1.964,5.627,2.999,8.796,2.999c0.643,0,1.289-0.042,1.936-0.128l16.066-2.121
	C74.007,351.492,79.608,344.188,78.575,336.249z M30.483,288.012c2.387-5.694,6.845-10.117,12.554-12.454
	c2.82-1.154,5.779-1.731,8.737-1.731c3.026,0,6.054,0.604,8.929,1.812c11.743,4.932,17.288,18.509,12.359,30.267c0,0,0,0,0,0.001
	c-2.387,5.693-6.845,10.116-12.554,12.453c-5.705,2.335-11.98,2.309-17.666-0.081C31.1,313.347,25.556,299.769,30.483,288.012z
	 M48.542,339.732l-0.639-4.835c1.286,0.133,2.577,0.203,3.867,0.203c3.8,0,7.6-0.585,11.293-1.739l0.578,4.378L48.542,339.732z"/>
<path d="M492.617,236.671l-29.506-21.154c-7.918-5.678-18.631-5.779-26.659-0.253l-80.912,55.718l-36.291-8.847l42.241-16.428
	c5.81-2.26,10.534-6.852,12.962-12.599l38.5-91.16l10.106,2.993c5.94,1.759,12.215,1.099,17.661-1.864
	c5.441-2.961,9.406-7.865,11.163-13.81c3.628-12.27-3.396-25.207-15.659-28.84l-29.982-8.88c-11.33-3.358-23.35,2.327-27.948,13.221
	l-15.828,37.476c-1.611,3.815,0.176,8.216,3.991,9.827c3.815,1.609,8.216-0.174,9.827-3.991l15.828-37.477
	c1.626-3.85,5.866-5.86,9.87-4.673l29.982,8.88c4.336,1.284,6.818,5.862,5.534,10.205c-0.622,2.104-2.023,3.839-3.947,4.886
	c-1.922,1.046-4.135,1.279-6.232,0.657l-16.536-4.897c-3.663-1.088-7.554,0.756-9.039,4.273l-41.109,97.338
	c-0.858,2.032-2.528,3.656-4.581,4.454l-64.323,25.017c-0.002,0-0.003,0.001-0.005,0.002l-46.628,18.135
	c-0.604,0.235-1.24,0.398-1.887,0.484l-65.8,8.734c-3.374,0.448-6.024,3.112-6.453,6.49c-0.429,3.377,1.471,6.619,4.627,7.896
	l34.985,14.159c1.128,0.457,2.157,1.173,2.979,2.073l55.523,60.857c3.051,3.345,2.815,8.551-0.523,11.603
	c-1.246,1.139-2.781,1.856-4.439,2.075c-2.667,0.354-5.328-0.62-7.134-2.6l-53.12-58.224c-0.756-0.828-1.688-1.477-2.728-1.897
	l-86.816-35.135c-3.447-1.396-5.528-4.95-5.06-8.647c0.467-3.69,3.363-6.61,7.044-7.103l36.003-4.762l30.948-4.094
	c0.002,0,0.003-0.001,0.005-0.001l43.845-5.8c0.662-0.088,1.317-0.194,1.967-0.314l10.13-1.345c0.593-0.078,1.174-0.228,1.731-0.444
	l103.012-40.062c1.89-0.735,3.401-2.204,4.19-4.072l14.553-34.458c1.611-3.815-0.176-8.216-3.991-9.827
	c-3.816-1.61-8.216,0.175-9.827,3.991l-13.318,31.536l-77.998,30.334c1.945-5.442,2.671-11.409,1.864-17.526
	c-1.313-9.95-6.424-18.792-14.389-24.897c-7.966-6.106-17.836-8.741-27.781-7.428c-4.106,0.544-6.995,4.313-6.452,8.419
	c0.545,4.108,4.33,6.994,8.419,6.452c5.979-0.796,11.904,0.793,16.688,4.461c4.785,3.668,7.854,8.979,8.647,14.985
	c1.563,11.844-6.408,22.786-17.966,25.081l-37.863,5.027l-5.907-44.744c4.049-0.595,6.885-4.329,6.346-8.399
	c-0.543-4.106-4.326-6.988-8.419-6.452l-7.317,0.968c-0.003,0-0.007,0-0.01,0.001l-43.279,5.726h-0.001l-29.72,3.931
	c-20.53,2.716-35.027,21.628-32.313,42.187c1.313,9.95,6.424,18.793,14.389,24.898c4.006,3.071,8.495,5.258,13.232,6.512
	c-0.645,1.693-1.107,3.477-1.343,5.334c-0.255,2.009-0.237,4.002,0.018,5.941c0.004,0.037,0.004,0.073,0.009,0.109l11.054,81.293
	l-29.813,60.861c-5.629,11.488-0.869,25.419,10.613,31.056c3.203,1.571,6.679,2.376,10.195,2.376c1.012,0,2.028-0.067,3.042-0.201
	c7.724-1.021,14.379-5.806,17.803-12.799l7.936-16.201c1.822-3.72,0.283-8.212-3.437-10.034c-3.722-1.824-8.213-0.284-10.034,3.437
	l-7.937,16.202c-1.21,2.472-3.563,4.163-6.299,4.525c-1.594,0.209-3.205-0.057-4.662-0.771c-4.061-1.993-5.743-6.924-3.75-10.991
	l30.816-62.911c0.654-1.335,0.896-2.836,0.696-4.31l-8.391-61.71l17.504,7.084l7.771,57.152c0.221,1.62-0.043,3.253-0.764,4.723
	l-10.473,21.379c-1.822,3.721-0.284,8.213,3.436,10.035c1.063,0.521,2.187,0.767,3.294,0.767c2.773,0,5.439-1.545,6.741-4.202
	l10.472-21.378c2.035-4.152,2.781-8.768,2.157-13.347l-6.614-48.645l48.166,19.493l51.972,56.964
	c4.423,4.85,10.664,7.563,17.14,7.563c1.011,0,2.027-0.066,3.043-0.2c4.714-0.624,9.067-2.654,12.592-5.874
	c9.439-8.629,10.105-23.337,1.485-32.785l-55.521-60.855c-2.322-2.547-5.239-4.577-8.436-5.87l-8.667-3.508l33.591-4.459
	c0.338,0.137,0.684,0.259,1.048,0.348l112.478,27.422c1.805,0.44,3.638,0.661,5.48,0.661c1.016,0,2.034-0.067,3.052-0.201
	c3.612-0.479,7.107-1.823,10.109-3.891l76.046-52.367l16.266,11.663c5.039,3.612,11.182,5.042,17.294,4.03
	s11.465-4.345,15.073-9.387C505.41,258.65,503.011,244.125,492.617,236.671z M145.436,256.647l-5.909-44.759l28.408-3.758
	l5.907,44.745L145.436,256.647z M82.959,242.128c-1.628-12.334,7.08-23.694,19.413-25.325l22.284-2.948l5.911,44.766l-14.94,1.984
	l-7.332,0.97c-5.981,0.787-11.903-0.795-16.688-4.462C86.822,253.446,83.752,248.133,82.959,242.128z M485.769,260.322
	c-1.275,1.782-3.167,2.961-5.326,3.318c-2.159,0.353-4.326-0.149-6.104-1.423l-20.549-14.733c-2.569-1.843-6.018-1.876-8.624-0.082
	l-80.387,55.356c-1.06,0.729-2.294,1.205-3.568,1.373c-1.011,0.135-2.022,0.081-3.012-0.161l-90.063-21.957l26.712-10.389
	l60.402,14.726c2.073,0.507,4.269,0.104,6.03-1.109l83.678-57.622c2.836-1.951,6.617-1.917,9.411,0.089l29.507,21.154
	C487.555,251.5,488.403,256.64,485.769,260.322z"/>
<path d="M504.5,49.501c-12.776,0-19.607,4.923-25.097,8.878c-4.872,3.511-8.392,6.047-16.326,6.047
	c-7.936,0-11.455-2.536-16.327-6.047c-5.488-3.956-12.319-8.878-25.096-8.878c-12.775,0-19.606,4.923-25.094,8.878
	c-4.871,3.511-8.391,6.047-16.323,6.047c-7.934,0-11.453-2.536-16.324-6.047c-5.488-3.955-12.318-8.878-25.095-8.878
	c-12.775,0-19.605,4.923-25.093,8.878c-4.871,3.511-8.391,6.047-16.323,6.047s-11.452-2.536-16.323-6.047
	c-5.487-3.955-12.317-8.878-25.093-8.878c-12.774,0-19.604,4.923-25.092,8.878c-4.87,3.511-8.389,6.047-16.319,6.047
	c-7.933,0-11.452-2.536-16.323-6.047c-5.487-3.955-12.317-8.878-25.092-8.878s-19.605,4.923-25.094,8.878
	c-4.871,3.511-8.391,6.047-16.323,6.047s-11.452-2.536-16.323-6.047c-5.487-3.955-12.317-8.878-25.093-8.878
	c-12.774,0-19.604,4.923-25.093,8.878c-4.87,3.511-8.389,6.047-16.321,6.047s-11.451-2.536-16.321-6.047
	c-5.488-3.955-12.318-8.878-25.092-8.878c-4.143,0-7.5,3.357-7.5,7.5s3.357,7.5,7.5,7.5c7.932,0,11.45,2.536,16.32,6.047
	c5.488,3.955,12.318,8.878,25.093,8.878s19.604-4.923,25.093-8.878c4.87-3.511,8.389-6.047,16.321-6.047s11.452,2.536,16.323,6.047
	c5.487,3.955,12.317,8.878,25.093,8.878s19.605-4.923,25.093-8.878c4.871-3.511,8.391-6.047,16.324-6.047s11.451,2.536,16.321,6.047
	c5.488,3.955,12.318,8.878,25.094,8.878c12.773,0,19.604-4.923,25.091-8.878c4.87-3.511,8.389-6.047,16.32-6.047
	c7.933,0,11.452,2.536,16.323,6.047c5.487,3.955,12.317,8.878,25.093,8.878s19.605-4.923,25.093-8.878
	c4.871-3.511,8.391-6.047,16.323-6.047c7.935,0,11.454,2.536,16.325,6.047c5.488,3.955,12.318,8.878,25.094,8.878
	s19.605-4.923,25.093-8.878c4.871-3.511,8.391-6.047,16.324-6.047c7.935,0,11.454,2.536,16.326,6.047
	c5.489,3.955,12.32,8.878,25.097,8.878s19.607-4.922,25.096-8.878c4.872-3.511,8.392-6.047,16.327-6.047c4.143,0,7.5-3.357,7.5-7.5
	S508.643,49.501,504.5,49.501z"/>
<g>
</g>
<g>
</g>
<g>
</g>
<g>
</g>
<g>
</g>
<g>
</g>
<g>
</g>
<g>
</g>
<g>
</g>
<g>
</g>
<g>
</g>
<g>
</g>
<g>
</g>
<g>
</g>
<g>
</g>
</svg>
