<svg width="313" height="298" viewBox="0 0 313 298" fill="none" xmlns="http://www.w3.org/2000/svg">
<path d="M270.442 20.8425C259.171 20.8425 253.431 16.7135 248.365 13.0705C243.792 9.78058 240.179 7.18192 232.459 7.18192C224.739 7.18192 221.126 9.78058 216.552 13.0705C211.487 16.7135 205.746 20.8425 194.475 20.8425C183.203 20.8425 177.463 16.7135 172.398 13.0705C167.825 9.78058 164.213 7.18192 156.492 7.18192C148.773 7.18192 145.161 9.78058 140.587 13.0705C135.523 16.7135 129.782 20.8425 118.511 20.8425C107.241 20.8425 101.502 16.7135 96.437 13.0705C91.8644 9.78058 88.2523 7.18192 80.5336 7.18192C72.8142 7.18192 69.202 9.78058 64.6287 13.0705C59.5642 16.7135 53.8234 20.8425 42.5527 20.8425C31.2813 20.8425 25.5405 16.7135 20.4752 13.0705C15.9019 9.78058 12.2897 7.18192 4.5695 7.18192C2.04637 7.18192 0 5.57437 0 3.59096C0 1.60815 2.04637 0 4.5695 0C15.8402 0 21.581 4.12901 26.6463 7.77204C31.2196 11.062 34.8325 13.6606 42.5527 13.6606C50.2721 13.6606 53.8843 11.062 58.4576 7.77263C63.5221 4.12901 69.2629 0 80.5336 0C91.8035 0 97.5436 4.1296 102.608 7.77263C107.181 11.0626 110.792 13.6606 118.511 13.6606C126.231 13.6606 129.843 11.062 134.416 7.77263C139.481 4.12901 145.222 0 156.492 0C167.764 0 173.504 4.12901 178.569 7.77263C183.142 11.062 186.755 13.6606 194.475 13.6606C202.196 13.6606 205.808 11.062 210.381 7.77263C215.447 4.12901 221.187 0 232.459 0C243.73 0 249.471 4.12901 254.536 7.77263C259.11 11.062 262.722 13.6606 270.442 13.6606C278.164 13.6606 281.777 11.062 286.351 7.77204C291.417 4.12901 297.158 0 308.431 0C310.954 0 313 1.60815 313 3.59096C313 5.57437 310.954 7.18192 308.431 7.18192C300.709 7.18192 297.096 9.78058 292.521 13.0705C287.456 16.7135 281.715 20.8425 270.442 20.8425Z" fill="black"/>
<path d="M270.442 51.9642C259.171 51.9642 253.431 47.8352 248.365 44.1922C243.792 40.9023 240.179 38.3036 232.459 38.3036C224.739 38.3036 221.126 40.9023 216.552 44.1922C211.487 47.8352 205.746 51.9642 194.475 51.9642C183.203 51.9642 177.463 47.8352 172.398 44.1922C167.825 40.9023 164.213 38.3036 156.492 38.3036C148.773 38.3036 145.161 40.9023 140.587 44.1922C135.523 47.8352 129.782 51.9642 118.511 51.9642C107.241 51.9642 101.502 47.8352 96.437 44.1922C91.8644 40.9023 88.2523 38.3036 80.5336 38.3036C72.8142 38.3036 69.202 40.9023 64.6287 44.1922C59.5642 47.8352 53.8234 51.9642 42.5527 51.9642C31.2813 51.9642 25.5405 47.8352 20.4752 44.1922C15.9019 40.9023 12.2897 38.3036 4.5695 38.3036C2.04637 38.3036 0 36.6961 0 34.7127C0 32.7299 2.04637 31.1217 4.5695 31.1217C15.8402 31.1217 21.581 35.2507 26.6463 38.8937C31.2196 42.1837 34.8325 44.7823 42.5527 44.7823C50.2721 44.7823 53.8843 42.1837 58.4576 38.8943C63.5221 35.2507 69.2629 31.1217 80.5336 31.1217C91.8035 31.1217 97.5436 35.2513 102.608 38.8943C107.181 42.1843 110.792 44.7823 118.511 44.7823C126.231 44.7823 129.843 42.1837 134.416 38.8943C139.481 35.2507 145.222 31.1217 156.492 31.1217C167.764 31.1217 173.504 35.2507 178.569 38.8943C183.142 42.1837 186.755 44.7823 194.475 44.7823C202.196 44.7823 205.808 42.1837 210.381 38.8943C215.447 35.2507 221.187 31.1217 232.459 31.1217C243.73 31.1217 249.471 35.2507 254.536 38.8943C259.11 42.1837 262.722 44.7823 270.442 44.7823C278.164 44.7823 281.777 42.1837 286.351 38.8937C291.417 35.2507 297.158 31.1217 308.431 31.1217C310.954 31.1217 313 32.7299 313 34.7127C313 36.6961 310.954 38.3036 308.431 38.3036C300.709 38.3036 297.096 40.9023 292.521 44.1922C287.456 47.8352 281.715 51.9642 270.442 51.9642Z" fill="black"/>
<path d="M270.442 83.0865C259.171 83.0865 253.431 78.9574 248.365 75.3144C243.792 72.0245 240.179 69.4258 232.459 69.4258C224.739 69.4258 221.126 72.0245 216.552 75.3138C211.487 78.9574 205.746 83.0865 194.475 83.0865C183.203 83.0865 177.463 78.9574 172.398 75.3138C167.825 72.0245 164.213 69.4258 156.492 69.4258C148.773 69.4258 145.161 72.0245 140.587 75.3138C135.523 78.9574 129.782 83.0865 118.511 83.0865C107.241 83.0865 101.502 78.9574 96.437 75.3138C91.8644 72.0245 88.2523 69.4258 80.5336 69.4258C72.8142 69.4258 69.202 72.0245 64.6287 75.3138C59.5642 78.9574 53.8234 83.0865 42.5527 83.0865C31.2813 83.0865 25.5405 78.9574 20.4752 75.3138C15.9019 72.0245 12.2889 69.4258 4.5695 69.4258C2.04637 69.4258 0 67.8177 0 65.8349C0 63.8515 2.04637 62.2439 4.5695 62.2439C15.8402 62.2439 21.581 66.3729 26.6463 70.0159C31.2196 73.3059 34.8325 75.9045 42.5527 75.9045C50.2721 75.9045 53.8843 73.3059 58.4576 70.0159C63.5221 66.3729 69.2629 62.2439 80.5336 62.2439C91.8035 62.2439 97.5436 66.3729 102.608 70.0165C107.181 73.3059 110.792 75.9045 118.511 75.9045C126.231 75.9045 129.843 73.3059 134.416 70.0159C139.481 66.3729 145.222 62.2439 156.492 62.2439C167.764 62.2439 173.504 66.3729 178.569 70.0159C183.142 73.3059 186.755 75.9045 194.475 75.9045C202.196 75.9045 205.808 73.3059 210.381 70.0159C215.447 66.3729 221.187 62.2439 232.459 62.2439C243.73 62.2439 249.471 66.3729 254.536 70.0159C259.11 73.3059 262.722 75.9045 270.442 75.9045C278.164 75.9045 281.777 73.3059 286.351 70.0159C291.417 66.3729 297.158 62.2439 308.431 62.2439C310.954 62.2439 313 63.8515 313 65.8349C313 67.8177 310.954 69.4258 308.431 69.4258C300.709 69.4258 297.096 72.0245 292.521 75.3144C287.456 78.9574 281.715 83.0865 270.442 83.0865Z" fill="black"/>
<path d="M270.442 114.208C259.171 114.208 253.431 110.079 248.365 106.436C243.792 103.146 240.179 100.548 232.459 100.548C224.739 100.548 221.126 103.146 216.552 106.436C211.487 110.079 205.746 114.208 194.475 114.208C183.203 114.208 177.463 110.079 172.398 106.436C167.825 103.146 164.213 100.548 156.492 100.548C148.773 100.548 145.161 103.146 140.587 106.436C135.523 110.079 129.782 114.208 118.511 114.208C107.241 114.208 101.502 110.079 96.437 106.436C91.8644 103.146 88.2523 100.548 80.5336 100.548C72.8142 100.548 69.202 103.146 64.6287 106.436C59.5642 110.079 53.8234 114.208 42.5527 114.208C31.2813 114.208 25.5405 110.079 20.4752 106.436C15.9019 103.146 12.2889 100.548 4.5695 100.548C2.04637 100.548 0 98.9394 0 96.9566C0 94.9732 2.04637 93.3656 4.5695 93.3656C15.8402 93.3656 21.581 97.4946 26.6463 101.138C31.2196 104.428 34.8325 107.026 42.5527 107.026C50.2721 107.026 53.8843 104.428 58.4576 101.138C63.5221 97.4946 69.2629 93.3656 80.5336 93.3656C91.8035 93.3656 97.5436 97.4946 102.608 101.138C107.181 104.428 110.792 107.026 118.511 107.026C126.231 107.026 129.843 104.428 134.416 101.138C139.481 97.4946 145.222 93.3656 156.492 93.3656C167.764 93.3656 173.504 97.4946 178.569 101.138C183.142 104.428 186.755 107.026 194.475 107.026C202.196 107.026 205.808 104.428 210.381 101.138C215.447 97.4946 221.187 93.3656 232.459 93.3656C243.73 93.3656 249.471 97.4946 254.536 101.138C259.11 104.428 262.722 107.026 270.442 107.026C278.164 107.026 281.777 104.428 286.351 101.138C291.417 97.4946 297.158 93.3656 308.431 93.3656C310.954 93.3656 313 94.9732 313 96.9566C313 98.9394 310.954 100.548 308.431 100.548C300.709 100.548 297.096 103.146 292.521 106.436C287.456 110.079 281.715 114.208 270.442 114.208Z" fill="black"/>
<path d="M270.442 145.33C259.171 145.33 253.431 141.201 248.365 137.558C243.792 134.268 240.179 131.669 232.459 131.669C224.739 131.669 221.126 134.268 216.552 137.557C211.487 141.201 205.746 145.33 194.475 145.33C183.203 145.33 177.463 141.201 172.398 137.557C167.825 134.268 164.213 131.669 156.492 131.669C148.773 131.669 145.161 134.268 140.587 137.557C135.523 141.201 129.782 145.33 118.511 145.33C107.241 145.33 101.502 141.201 96.437 137.557C91.8644 134.268 88.2523 131.669 80.5336 131.669C72.8142 131.669 69.202 134.268 64.6287 137.557C59.5642 141.201 53.8234 145.33 42.5527 145.33C31.2813 145.33 25.5405 141.201 20.4752 137.557C15.9019 134.268 12.2889 131.669 4.5695 131.669C2.04637 131.669 0 130.061 0 128.078C0 126.094 2.04637 124.487 4.5695 124.487C15.8402 124.487 21.581 128.616 26.6463 132.259C31.2196 135.549 34.8325 138.148 42.5527 138.148C50.2721 138.148 53.8843 135.549 58.4576 132.259C63.5221 128.616 69.2629 124.487 80.5336 124.487C91.8035 124.487 97.5436 128.616 102.608 132.26C107.181 135.549 110.792 138.148 118.511 138.148C126.231 138.148 129.843 135.549 134.416 132.259C139.481 128.616 145.222 124.487 156.492 124.487C167.764 124.487 173.504 128.616 178.569 132.259C183.142 135.549 186.755 138.148 194.475 138.148C202.196 138.148 205.808 135.549 210.381 132.259C215.447 128.616 221.187 124.487 232.459 124.487C243.73 124.487 249.471 128.616 254.536 132.259C259.11 135.549 262.722 138.148 270.442 138.148C278.164 138.148 281.777 135.549 286.351 132.259C291.417 128.616 297.158 124.487 308.431 124.487C310.954 124.487 313 126.094 313 128.078C313 130.061 310.954 131.669 308.431 131.669C300.709 131.669 297.096 134.268 292.521 137.558C287.456 141.201 281.715 145.33 270.442 145.33Z" fill="black"/>
<path d="M270.442 172.843C259.171 172.843 253.431 168.714 248.365 165.07C243.792 161.781 240.179 159.182 232.459 159.182C224.739 159.182 221.126 161.781 216.552 165.07C211.487 168.714 205.746 172.843 194.475 172.843C183.203 172.843 177.463 168.714 172.398 165.07C167.825 161.781 164.213 159.182 156.492 159.182C148.773 159.182 145.161 161.781 140.587 165.07C135.523 168.714 129.782 172.843 118.511 172.843C107.241 172.843 101.502 168.714 96.437 165.07C91.8644 161.781 88.2523 159.182 80.5336 159.182C72.8142 159.182 69.202 161.781 64.6287 165.07C59.5642 168.714 53.8234 172.843 42.5527 172.843C31.2813 172.843 25.5405 168.714 20.4752 165.07C15.9019 161.781 12.2897 159.182 4.5695 159.182C2.04637 159.182 0 157.574 0 155.591C0 153.608 2.04637 152 4.5695 152C15.8402 152 21.581 156.129 26.6463 159.772C31.2196 163.062 34.8325 165.661 42.5527 165.661C50.2721 165.661 53.8843 163.062 58.4576 159.773C63.5221 156.129 69.2629 152 80.5336 152C91.8035 152 97.5436 156.13 102.608 159.773C107.181 163.063 110.792 165.661 118.511 165.661C126.231 165.661 129.843 163.062 134.416 159.773C139.481 156.129 145.222 152 156.492 152C167.764 152 173.504 156.129 178.569 159.773C183.142 163.062 186.755 165.661 194.475 165.661C202.196 165.661 205.808 163.062 210.381 159.773C215.447 156.129 221.187 152 232.459 152C243.73 152 249.471 156.129 254.536 159.773C259.11 163.062 262.722 165.661 270.442 165.661C278.164 165.661 281.777 163.062 286.351 159.772C291.417 156.129 297.158 152 308.431 152C310.954 152 313 153.608 313 155.591C313 157.574 310.954 159.182 308.431 159.182C300.709 159.182 297.096 161.781 292.521 165.07C287.456 168.714 281.715 172.843 270.442 172.843Z" fill="black"/>
<path d="M270.442 203.964C259.171 203.964 253.431 199.835 248.365 196.192C243.792 192.902 240.179 190.304 232.459 190.304C224.739 190.304 221.126 192.902 216.552 196.192C211.487 199.835 205.746 203.964 194.475 203.964C183.203 203.964 177.463 199.835 172.398 196.192C167.825 192.902 164.213 190.304 156.492 190.304C148.773 190.304 145.161 192.902 140.587 196.192C135.523 199.835 129.782 203.964 118.511 203.964C107.241 203.964 101.502 199.835 96.437 196.192C91.8644 192.902 88.2523 190.304 80.5336 190.304C72.8142 190.304 69.202 192.902 64.6287 196.192C59.5642 199.835 53.8234 203.964 42.5527 203.964C31.2813 203.964 25.5405 199.835 20.4752 196.192C15.9019 192.902 12.2897 190.304 4.5695 190.304C2.04637 190.304 0 188.696 0 186.713C0 184.73 2.04637 183.122 4.5695 183.122C15.8402 183.122 21.581 187.251 26.6463 190.894C31.2196 194.184 34.8325 196.782 42.5527 196.782C50.2721 196.782 53.8843 194.184 58.4576 190.894C63.5221 187.251 69.2629 183.122 80.5336 183.122C91.8035 183.122 97.5436 187.251 102.608 190.894C107.181 194.184 110.792 196.782 118.511 196.782C126.231 196.782 129.843 194.184 134.416 190.894C139.481 187.251 145.222 183.122 156.492 183.122C167.764 183.122 173.504 187.251 178.569 190.894C183.142 194.184 186.755 196.782 194.475 196.782C202.196 196.782 205.808 194.184 210.381 190.894C215.447 187.251 221.187 183.122 232.459 183.122C243.73 183.122 249.471 187.251 254.536 190.894C259.11 194.184 262.722 196.782 270.442 196.782C278.164 196.782 281.777 194.184 286.351 190.894C291.417 187.251 297.158 183.122 308.431 183.122C310.954 183.122 313 184.73 313 186.713C313 188.696 310.954 190.304 308.431 190.304C300.709 190.304 297.096 192.902 292.521 196.192C287.456 199.835 281.715 203.964 270.442 203.964Z" fill="black"/>
<path d="M270.442 235.086C259.171 235.086 253.431 230.957 248.365 227.314C243.792 224.024 240.179 221.426 232.459 221.426C224.739 221.426 221.126 224.024 216.552 227.314C211.487 230.957 205.746 235.086 194.475 235.086C183.203 235.086 177.463 230.957 172.398 227.314C167.825 224.024 164.213 221.426 156.492 221.426C148.773 221.426 145.161 224.024 140.587 227.314C135.523 230.957 129.782 235.086 118.511 235.086C107.241 235.086 101.502 230.957 96.437 227.314C91.8644 224.024 88.2523 221.426 80.5336 221.426C72.8142 221.426 69.202 224.024 64.6287 227.314C59.5642 230.957 53.8234 235.086 42.5527 235.086C31.2813 235.086 25.5405 230.957 20.4752 227.314C15.9019 224.024 12.2889 221.426 4.5695 221.426C2.04637 221.426 0 219.818 0 217.835C0 215.851 2.04637 214.244 4.5695 214.244C15.8402 214.244 21.581 218.373 26.6463 222.016C31.2196 225.306 34.8325 227.905 42.5527 227.905C50.2721 227.905 53.8843 225.306 58.4576 222.016C63.5221 218.373 69.2629 214.244 80.5336 214.244C91.8035 214.244 97.5436 218.373 102.608 222.017C107.181 225.306 110.792 227.905 118.511 227.905C126.231 227.905 129.843 225.306 134.416 222.016C139.481 218.373 145.222 214.244 156.492 214.244C167.764 214.244 173.504 218.373 178.569 222.016C183.142 225.306 186.755 227.905 194.475 227.905C202.196 227.905 205.808 225.306 210.381 222.016C215.447 218.373 221.187 214.244 232.459 214.244C243.73 214.244 249.471 218.373 254.536 222.016C259.11 225.306 262.722 227.905 270.442 227.905C278.164 227.905 281.777 225.306 286.351 222.016C291.417 218.373 297.158 214.244 308.431 214.244C310.954 214.244 313 215.851 313 217.835C313 219.818 310.954 221.426 308.431 221.426C300.709 221.426 297.096 224.024 292.521 227.314C287.456 230.957 281.715 235.086 270.442 235.086Z" fill="black"/>
<path d="M270.442 266.208C259.171 266.208 253.431 262.079 248.365 258.436C243.792 255.146 240.179 252.548 232.459 252.548C224.739 252.548 221.126 255.146 216.552 258.436C211.487 262.079 205.746 266.208 194.475 266.208C183.203 266.208 177.463 262.079 172.398 258.436C167.825 255.146 164.213 252.548 156.492 252.548C148.773 252.548 145.161 255.146 140.587 258.436C135.523 262.079 129.782 266.208 118.511 266.208C107.241 266.208 101.502 262.079 96.437 258.436C91.8644 255.146 88.2523 252.548 80.5336 252.548C72.8142 252.548 69.202 255.146 64.6287 258.436C59.5642 262.079 53.8234 266.208 42.5527 266.208C31.2813 266.208 25.5405 262.079 20.4752 258.436C15.9019 255.146 12.2889 252.548 4.5695 252.548C2.04637 252.548 0 250.939 0 248.957C0 246.973 2.04637 245.366 4.5695 245.366C15.8402 245.366 21.581 249.495 26.6463 253.138C31.2196 256.428 34.8325 259.026 42.5527 259.026C50.2721 259.026 53.8843 256.428 58.4576 253.138C63.5221 249.495 69.2629 245.366 80.5336 245.366C91.8035 245.366 97.5436 249.495 102.608 253.138C107.181 256.428 110.792 259.026 118.511 259.026C126.231 259.026 129.843 256.428 134.416 253.138C139.481 249.495 145.222 245.366 156.492 245.366C167.764 245.366 173.504 249.495 178.569 253.138C183.142 256.428 186.755 259.026 194.475 259.026C202.196 259.026 205.808 256.428 210.381 253.138C215.447 249.495 221.187 245.366 232.459 245.366C243.73 245.366 249.471 249.495 254.536 253.138C259.11 256.428 262.722 259.026 270.442 259.026C278.164 259.026 281.777 256.428 286.351 253.138C291.417 249.495 297.158 245.366 308.431 245.366C310.954 245.366 313 246.973 313 248.957C313 250.939 310.954 252.548 308.431 252.548C300.709 252.548 297.096 255.146 292.521 258.436C287.456 262.079 281.715 266.208 270.442 266.208Z" fill="black"/>
<path d="M270.442 297.33C259.171 297.33 253.431 293.201 248.365 289.558C243.792 286.268 240.179 283.669 232.459 283.669C224.739 283.669 221.126 286.268 216.552 289.557C211.487 293.201 205.746 297.33 194.475 297.33C183.203 297.33 177.463 293.201 172.398 289.557C167.825 286.268 164.213 283.669 156.492 283.669C148.773 283.669 145.161 286.268 140.587 289.557C135.523 293.201 129.782 297.33 118.511 297.33C107.241 297.33 101.502 293.201 96.437 289.557C91.8644 286.268 88.2523 283.669 80.5336 283.669C72.8142 283.669 69.202 286.268 64.6287 289.557C59.5642 293.201 53.8234 297.33 42.5527 297.33C31.2813 297.33 25.5405 293.201 20.4752 289.557C15.9019 286.268 12.2889 283.669 4.5695 283.669C2.04637 283.669 0 282.061 0 280.078C0 278.094 2.04637 276.487 4.5695 276.487C15.8402 276.487 21.581 280.616 26.6463 284.259C31.2196 287.549 34.8325 290.148 42.5527 290.148C50.2721 290.148 53.8843 287.549 58.4576 284.259C63.5221 280.616 69.2629 276.487 80.5336 276.487C91.8035 276.487 97.5436 280.616 102.608 284.26C107.181 287.549 110.792 290.148 118.511 290.148C126.231 290.148 129.843 287.549 134.416 284.259C139.481 280.616 145.222 276.487 156.492 276.487C167.764 276.487 173.504 280.616 178.569 284.259C183.142 287.549 186.755 290.148 194.475 290.148C202.196 290.148 205.808 287.549 210.381 284.259C215.447 280.616 221.187 276.487 232.459 276.487C243.73 276.487 249.471 280.616 254.536 284.259C259.11 287.549 262.722 290.148 270.442 290.148C278.164 290.148 281.777 287.549 286.351 284.259C291.417 280.616 297.158 276.487 308.431 276.487C310.954 276.487 313 278.094 313 280.078C313 282.061 310.954 283.669 308.431 283.669C300.709 283.669 297.096 286.268 292.521 289.558C287.456 293.201 281.715 297.33 270.442 297.33Z" fill="black"/>
</svg>
